<svg width="32" height="32" viewBox="0 0 32 32" fill="none" xmlns="http://www.w3.org/2000/svg">
<path d="M18.9552 18.9612C17.044 19.6767 14.9386 19.677 13.0272 18.962C12.3115 17.0523 12.311 14.9481 13.026 13.038C14.9375 12.322 17.0436 12.322 18.9552 13.038C19.6706 14.9478 19.6706 17.0515 18.9552 18.9612ZM29.8052 13.6664H21.628L27.41 7.88764C26.5004 6.61165 25.3842 5.49635 24.1076 4.58764L18.3252 10.3668V2.19444C16.7796 1.93519 15.2016 1.93519 13.656 2.19444V10.3664L7.87359 4.58804C6.59714 5.49682 5.48106 6.61196 4.57119 7.88764L10.354 13.6664H2.17679C1.97479 15.2544 1.90959 16.7476 2.17679 18.3328H10.3544L4.57119 24.1116C5.48091 25.3874 6.59686 26.5027 7.87319 27.4116L13.656 21.6324V29.8052C15.1996 30.0636 16.7816 30.0636 18.3252 29.8052V21.6324L24.108 27.4116C25.3843 26.5027 26.5002 25.3874 27.41 24.1116L21.6272 18.3328H29.8052C30.0647 16.7882 30.0647 15.2111 29.8052 13.6664Z" fill="#FF4A00"/>
</svg>
