<svg width="36" height="36" viewBox="0 0 36 36" fill="none" xmlns="http://www.w3.org/2000/svg">
<path d="M29.395 27.0616C29.4017 27.2097 29.379 27.3576 29.3282 27.4969C29.2775 27.6362 29.1997 27.7641 29.0994 27.8732C28.999 27.9824 28.8781 28.0706 28.7436 28.1328C28.609 28.1951 28.4635 28.2301 28.3153 28.2359C28.1672 28.2417 28.0194 28.2181 27.8804 28.1666C27.7414 28.115 27.6139 28.0365 27.5054 27.9356C27.3968 27.8346 27.3093 27.7132 27.2478 27.5783C27.1864 27.4433 27.1522 27.2976 27.1473 27.1494C27.1667 25.9434 26.9433 24.7457 26.4904 23.6277C26.0375 22.5097 25.3642 21.4943 24.5108 20.6419C23.6573 19.7894 22.6411 19.1174 21.5225 18.6658C20.404 18.2142 19.2061 17.9923 18 18.0132C16.7939 17.9924 15.5959 18.2144 14.4773 18.6661C13.3587 19.1178 12.3425 19.7899 11.489 20.6424C10.6356 21.4949 9.96234 22.5105 9.50945 23.6285C9.05655 24.7466 8.83323 25.9444 8.85278 27.1505C8.84794 27.2989 8.8138 27.4448 8.75231 27.5799C8.69082 27.715 8.60321 27.8365 8.49452 27.9376C8.38583 28.0387 8.25821 28.1172 8.11902 28.1688C7.97983 28.2203 7.83182 28.2438 7.68352 28.2378C7.53522 28.2319 7.38956 28.1966 7.25494 28.1341C7.12032 28.0716 6.9994 27.9831 6.89915 27.8737C6.7989 27.7642 6.72129 27.636 6.67082 27.4965C6.62034 27.3569 6.59798 27.2087 6.60503 27.0605C6.85457 20.7866 10.7014 17.2768 14.9507 16.1606C8.60038 13.3498 9.61668 2.7381 17.9999 2.4292C19.6333 2.44031 21.2146 3.00572 22.4847 4.03283C23.7548 5.05995 24.6385 6.48789 24.9911 8.08283C25.3437 9.67776 25.1443 11.3452 24.4255 12.812C23.7067 14.2788 22.5112 15.458 21.0347 16.1567C25.2911 17.2692 29.147 20.7805 29.395 27.0616ZM24.5231 27.1049C24.2568 35.7272 11.7419 35.7252 11.4769 27.1048C11.7432 18.4827 24.2581 18.4847 24.5231 27.1049ZM19.9544 25.9805H19.125V25.1499C19.125 24.8516 19.0065 24.5654 18.7955 24.3544C18.5845 24.1435 18.2984 24.0249 18 24.0249C17.7016 24.0249 17.4155 24.1435 17.2045 24.3544C16.9935 24.5654 16.875 24.8516 16.875 25.1499V25.9805H16.0455C15.7472 25.9805 15.461 26.099 15.25 26.31C15.0391 26.521 14.9205 26.8071 14.9205 27.1055C14.9205 27.4039 15.0391 27.69 15.25 27.901C15.461 28.112 15.7472 28.2305 16.0455 28.2305H16.875V29.06C16.875 29.3583 16.9935 29.6445 17.2045 29.8555C17.4155 30.0664 17.7016 30.185 18 30.185C18.2984 30.185 18.5845 30.0664 18.7955 29.8555C19.0065 29.6445 19.125 29.3583 19.125 29.06V28.2305H19.9545C20.2501 28.2263 20.5322 28.106 20.7397 27.8954C20.9473 27.6849 21.0637 27.4011 21.0637 27.1055C21.0637 26.8099 20.9473 26.5261 20.7397 26.3156C20.5322 26.105 20.2501 25.9847 19.9544 25.9805Z" fill="white"/>
</svg>
