<svg width="36" height="36" viewBox="0 0 36 36" fill="none" xmlns="http://www.w3.org/2000/svg">
<path d="M34.1665 23.8077L33.1448 23.5753C33.0526 23.3003 32.9413 23.0317 32.8118 22.7719L33.3701 21.8849C33.714 21.3386 33.6832 20.7326 33.2918 20.341L32.4233 19.4725C32.0319 19.0812 31.4258 19.0502 30.8794 19.3942L30.6701 19.5259V11.3543C30.6701 9.80477 29.5129 8.54414 28.0905 8.54414H19.7453L20.0254 8.0992C20.4593 7.40993 20.4292 6.68234 19.9471 6.20006L18.7142 4.96713C18.232 4.485 17.5043 4.45505 16.815 4.88888L15.4418 5.75323C15.0072 5.52809 14.5544 5.34028 14.0891 5.1922L13.7295 3.6108C13.5489 2.81662 13.0131 2.32324 12.3312 2.32324H10.5875C9.90565 2.32324 9.36994 2.81663 9.1893 3.61073L8.82966 5.1922C8.36433 5.34021 7.91144 5.52802 7.47691 5.75323L6.10378 4.88888C5.41437 4.45512 4.68677 4.48514 4.20457 4.96713L2.97164 6.20006C2.48951 6.68227 2.45948 7.40993 2.89338 8.0992L3.75766 9.4722C3.53245 9.9068 3.34458 10.3597 3.1965 10.8251L1.61538 11.1848C0.821203 11.3654 0.32782 11.9011 0.32782 12.583V14.3266C0.32782 15.0085 0.821203 15.5442 1.61531 15.7249L3.19629 16.0845C3.34451 16.5503 3.53238 17.0034 3.75745 17.4379L2.89338 18.8105C2.45955 19.4997 2.48958 20.2274 2.97164 20.7096L4.20464 21.9425C4.68691 22.4246 5.41451 22.4545 6.10378 22.0208L7.47698 21.1565C7.91151 21.3816 8.3644 21.5694 8.82966 21.7175L9.1893 23.2989C9.36987 24.0931 9.90565 24.5864 10.5875 24.5864H10.7166V27.8392C10.7166 29.3888 11.8738 30.6494 13.2962 30.6494H20.9764C21.0124 30.701 21.0531 30.7504 21.0993 30.7965L21.9678 31.665C22.3653 32.0624 22.9568 32.0924 23.5117 31.7433L24.3991 31.1847C24.6588 31.3143 24.9273 31.4256 25.202 31.5176L25.4344 32.5396C25.5776 33.1692 26.0278 33.576 26.5815 33.576H27.8097C28.3633 33.576 28.8135 33.1692 28.9567 32.5397L29.1891 31.518C29.4641 31.4258 29.7326 31.3144 29.9925 31.185L30.8794 31.7433C31.4261 32.0873 32.0321 32.0564 32.4234 31.665L33.2919 30.7965C33.6833 30.405 33.714 29.799 33.3701 29.2526L32.8116 28.3652C32.9412 28.1054 33.0525 27.837 33.1445 27.5623L34.1665 27.3298C34.7961 27.1867 35.2028 26.7364 35.2028 26.1828V24.9546C35.2028 24.3926 34.8058 23.9531 34.1666 23.8076L34.1665 23.8077ZM27.1955 22.9488C28.6402 22.9488 29.8155 24.1241 29.8155 25.5688C29.8155 27.0134 28.6402 28.1888 27.1955 28.1888C25.7508 28.1888 24.5754 27.0135 24.5754 25.5688C24.5754 24.1241 25.7508 22.9488 27.1955 22.9488ZM11.4593 17.4105C9.27818 17.4105 7.5037 15.636 7.5037 13.4548C7.5037 11.2737 9.27818 9.49927 11.4593 9.49927C13.6405 9.49927 15.415 11.2737 15.415 13.4548C15.415 15.636 13.6405 17.4105 11.4593 17.4105ZM21.0209 29.2526C20.9646 29.3421 20.9194 29.4331 20.8831 29.5245H13.2961C12.4941 29.5245 11.8415 28.7685 11.8415 27.8393V24.5865H12.3311C13.013 24.5865 13.5487 24.0931 13.7294 23.2989L14.089 21.718C14.5549 21.5698 15.0079 21.3819 15.4424 21.1569L16.815 22.0209C17.5042 22.4547 18.2317 22.4247 18.7141 21.9426L19.947 20.7097C20.4291 20.2275 20.4591 19.4998 20.0253 18.8105L19.161 17.4373C19.386 17.0028 19.5738 16.5499 19.722 16.0846L21.3034 15.7249C22.0976 15.5444 22.5909 15.0086 22.5909 14.3267V12.5831C22.5909 11.9012 22.0976 11.3655 21.3034 11.1849L19.7225 10.8253C19.5965 10.4293 19.4402 10.0433 19.2583 9.66921H28.0904C28.8924 9.66921 29.545 10.4251 29.545 11.3544V19.7523C29.4276 19.7048 29.3089 19.6602 29.1889 19.62L28.9565 18.5979C28.8133 17.9683 28.3631 17.5616 27.8095 17.5616H26.5812C26.0276 17.5616 25.5774 17.9683 25.4342 18.5978L25.2018 19.6199C24.9271 19.7121 24.6586 19.8234 24.3989 19.9528L23.5115 19.3943C22.9566 19.0452 22.3651 19.0752 21.9675 19.4725L21.099 20.3411C20.7076 20.7327 20.6769 21.3387 21.0208 21.885L21.5793 22.7722C21.4496 23.0321 21.3383 23.3006 21.2462 23.5753L20.2243 23.8077C19.5851 23.9532 19.1881 24.3927 19.1881 24.9547V26.1829C19.1881 26.7366 19.5949 27.1868 20.2244 27.33L21.2461 27.5623C21.3382 27.8374 21.4496 28.1059 21.5791 28.3657L21.0208 29.2527L21.0209 29.2526Z" fill="white"/>
</svg>
