<svg width="32" height="32" viewBox="0 0 32 32" fill="none" xmlns="http://www.w3.org/2000/svg">
<g clip-path="url(#clip0_1_3204)">
<path fill-rule="evenodd" clip-rule="evenodd" d="M17.568 28.8485V24.5116C19.1857 23.6677 20.7308 22.601 22.1118 21.3873V28.8485C22.1118 29.0894 21.9153 29.286 21.6743 29.286H18.0055C17.7645 29.286 17.568 29.0895 17.568 28.8485ZM10.5148 29.286H14.1836C14.4246 29.286 14.6211 29.0895 14.6211 28.8485V25.7748C13.1345 26.2814 11.613 26.6104 10.0773 26.7598V28.8485C10.0773 29.0894 10.2738 29.286 10.5148 29.286ZM3.70302 25.4731C4.91015 25.3655 6.05159 25.186 7.13046 24.9499V20.844C7.13046 20.6031 6.9339 20.4065 6.69296 20.4065H3.02409C2.78315 20.4065 2.58659 20.6031 2.58659 20.844V28.8485C2.58659 29.0894 2.78315 29.286 3.02409 29.286H6.69296C6.9339 29.286 7.13046 29.0895 7.13046 28.8485V26.826C5.9664 26.7654 4.80165 26.6023 3.64584 26.3355C3.43496 26.2867 3.29034 26.093 3.3054 25.8785C3.32046 25.6644 3.48915 25.4924 3.70309 25.473L3.70302 25.4731ZM21.5643 15.7697L20.6485 15.1808C20.4195 15.0329 20.296 14.7816 20.3201 14.509C20.3411 14.236 20.5069 14.0089 20.7569 13.9017L22.1118 13.3226V11.316C22.1118 11.0751 21.9153 10.8785 21.6743 10.8785H18.0054C17.7645 10.8785 17.5679 11.075 17.5679 11.316V19.9395C19.5435 18.327 20.8527 16.7443 21.5642 15.7697H21.5643ZM26.9235 11.6094C27.1284 11.7402 27.2519 11.9544 27.261 12.1975L27.4688 18.2123C27.4779 18.4837 27.3363 18.735 27.1013 18.8694C26.8663 19.0037 26.5771 18.9955 26.3482 18.8485L25.1703 18.09C25.1335 18.1397 25.0961 18.1892 25.0587 18.2387V28.8485C25.0587 29.0894 25.2553 29.286 25.4962 29.286H29.1651C29.406 29.286 29.6026 29.0895 29.6026 28.8485V6.5521C29.6026 6.31116 29.4061 6.1146 29.1651 6.1146H25.4962C25.2553 6.1146 25.0587 6.31116 25.0587 6.5521V12.0633L26.2488 11.5547C26.4718 11.4589 26.7188 11.479 26.9236 11.6095L26.9235 11.6094ZM10.5147 15.6425C10.2738 15.6425 10.0772 15.839 10.0772 16.08V24.1199C11.7841 23.5264 13.2956 22.7947 14.6211 22.0042V16.08C14.6211 15.839 14.4245 15.6425 14.1836 15.6425H10.5147ZM31.0352 30.1609H1.15377C1.0179 30.1609 0.906711 30.272 0.906711 30.4079V31.0643C0.906711 31.2002 1.0179 31.3113 1.15377 31.3113H31.0353C31.1711 31.3113 31.2823 31.2002 31.2823 31.0643V30.4079C31.2823 30.272 31.1711 30.1609 31.0353 30.1609H31.0352ZM7.56152 14.3617C9.29715 14.3617 10.8816 13.7154 12.088 12.6505L7.25127 7.8151C7.16996 7.73285 7.12477 7.62166 7.12477 7.50573V0.688477C3.54859 0.913852 0.717773 3.88504 0.717773 7.51798C0.717773 11.2977 3.78184 14.3617 7.56152 14.3617ZM7.99834 0.688539V7.06816H14.3901C14.1678 3.64266 11.4256 0.904539 7.99834 0.688539ZM12.7055 12.0316C13.676 10.9264 14.2959 9.50566 14.3917 7.94323H8.61684L12.7055 12.0316ZM8.13746 25.9756C15.2711 25.9762 21.3956 21.9156 24.7033 17.2456C24.8389 17.0543 25.098 17.0034 25.2968 17.1305L26.5832 17.9593L26.3934 12.4443L21.3595 14.5961L22.4229 15.2818C22.5223 15.3459 22.5916 15.4475 22.6157 15.5635C22.6398 15.6798 22.6127 15.8003 22.5464 15.8976C21.3203 17.6801 19.1001 20.2745 15.488 22.5095C12.8159 24.1637 9.88471 25.3069 6.74571 25.9245C7.21265 25.9594 7.67659 25.9757 8.13746 25.9757V25.9756Z" fill="white"/>
</g>
<defs>
<clipPath id="clip0_1_3204">
<rect width="32" height="32" fill="white"/>
</clipPath>
</defs>
</svg>
