<svg width="34" height="34" viewBox="0 0 34 34" fill="none" xmlns="http://www.w3.org/2000/svg">
<path d="M16.563 14.2951C16.1502 14.2951 15.7373 14.0887 15.5309 13.8823L9.95732 8.30873C9.33804 7.68944 9.33804 6.6573 9.95732 6.03802L15.5309 0.464463C16.1502 -0.154821 17.1823 -0.154821 17.8016 0.464463L23.3751 6.03802C23.9944 6.6573 23.9944 7.68944 23.3751 8.30873L17.8016 13.8823C17.3887 14.0887 16.9759 14.2951 16.563 14.2951ZM13.2602 7.07016L16.563 10.373L19.8659 7.07016L16.563 3.76731L13.2602 7.07016Z" fill="white"/>
<path d="M16.563 33.0803C16.1502 33.0803 15.7373 32.8739 15.5309 32.6674L9.95732 27.0939C9.33804 26.4746 9.33804 25.4425 9.95732 24.8232L15.5309 19.2496C16.1502 18.6303 17.1823 18.6303 17.8016 19.2496L23.3751 24.8232C23.9944 25.4425 23.9944 26.4746 23.3751 27.0939L17.8016 32.6674C17.3887 32.8739 16.9759 33.0803 16.563 33.0803ZM13.2602 26.0617L16.563 29.3646L19.8659 26.0617L16.563 22.7589L13.2602 26.0617Z" fill="white"/>
<path d="M26.0583 23.5848C25.6454 23.5848 25.2325 23.3784 25.0261 23.1719L19.4526 17.5984C18.8333 16.9791 18.8333 15.947 19.4526 15.3277L24.8197 9.96056C25.439 9.34127 26.4711 9.34127 27.0904 9.96056L32.664 15.5341C33.2832 16.1534 33.2832 17.1855 32.664 17.8048L27.0904 23.3784C26.884 23.5848 26.4711 23.5848 26.0583 23.5848ZM22.7554 16.5663L26.0583 19.8691L29.3611 16.5663L26.0583 13.2634L22.7554 16.5663Z" fill="white"/>
<path d="M7.06698 23.5842C6.65413 23.5842 6.24127 23.3778 6.03484 23.1713L0.461289 17.5978C-0.157995 16.9785 -0.157995 15.9464 0.461289 15.3271L6.03484 9.75353C6.65413 9.13424 7.68627 9.13424 8.30555 9.75353L13.8791 15.3271C14.4984 15.9464 14.4984 16.9785 13.8791 17.5978L8.30555 23.1713C7.8927 23.5842 7.68627 23.5842 7.06698 23.5842ZM3.76414 16.5656L7.06698 19.8685L10.3698 16.5656L7.06698 13.2628L3.76414 16.5656Z" fill="white"/>
</svg>
