<svg width="36" height="26" viewBox="0 0 36 26" fill="none" xmlns="http://www.w3.org/2000/svg">
<path d="M31.5412 3.29355C29.0644 1.21355 26.0915 0.17355 22.9536 0L22.4588 0.52C25.2661 1.21355 27.7429 2.6 30.0548 4.50645C27.2474 2.94645 24.1102 1.90645 20.8073 1.56C19.8164 1.38645 18.991 1.38645 18 1.38645C17.009 1.38645 16.1836 1.38645 15.1927 1.56C11.8898 1.90645 8.75193 2.94645 5.94524 4.50645C8.25709 2.6 10.7339 1.21355 13.5412 0.52L13.0457 0C9.90851 0.17355 6.93556 1.21355 4.45811 3.29355C1.65142 8.84 0.164945 15.08 0 21.4935C2.4768 24.2664 5.94524 26 9.57796 26C9.57796 26 10.7339 24.6135 11.5599 23.4C9.41302 22.88 7.43105 21.6665 6.11018 19.76C7.26611 20.4536 8.42204 21.1465 9.57796 21.6664C11.0638 22.36 12.5503 22.7064 14.0367 23.0535C15.3576 23.2264 16.6791 23.4 18 23.4C19.3209 23.4 20.6424 23.2264 21.9633 23.0535C23.4491 22.7064 24.9356 22.36 26.422 21.6664C27.578 21.1465 28.7339 20.4536 29.8898 19.76C28.5689 21.6665 26.587 22.88 24.4407 23.4C25.2655 24.6135 26.422 26 26.422 26C30.0548 26 33.5232 24.2664 36 21.4935C35.8351 15.08 34.3486 8.84 31.5412 3.29355ZM12.5503 18.3735C10.8988 18.3735 9.41302 16.8135 9.41302 14.9064C9.41302 13 10.8988 11.44 12.5503 11.44C14.2017 11.44 15.6881 13 15.6881 14.9064C15.6881 16.8135 14.2023 18.3735 12.5503 18.3735ZM23.4497 18.3735C21.7983 18.3735 20.3119 16.8135 20.3119 14.9064C20.3119 13 21.7977 11.44 23.4497 11.44C25.1012 11.44 26.587 13 26.587 14.9064C26.587 16.8135 25.1012 18.3735 23.4497 18.3735Z" fill="white"/>
</svg>
