<svg width="28" height="28" viewBox="0 0 28 28" fill="none" xmlns="http://www.w3.org/2000/svg">
<path d="M24.3158 15.3816C24.3164 15.5107 24.2899 15.6385 24.238 15.7567C24.1861 15.8749 24.1098 15.9809 24.0143 16.0677C23.9188 16.1546 23.8061 16.2204 23.6834 16.2609C23.5608 16.3013 23.4311 16.3155 23.3026 16.3027C23.0584 16.3027 22.8241 16.2056 22.6513 16.0329C22.4786 15.8602 22.3816 15.6259 22.3816 15.3816V6.99999C22.3816 6.75572 22.4786 6.52147 22.6513 6.34873C22.8241 6.17599 23.0584 6.07898 23.3026 6.07898C23.579 6.07898 23.8553 6.17107 24.0395 6.35525C24.2237 6.53948 24.3158 6.72366 24.3158 6.99999V15.3816ZM23.9474 21.1842C23.8553 21.3684 20.3553 24.2237 14 24.2237C7.64472 24.2237 4.23685 21.3684 4.05261 21.1842C3.94431 21.1115 3.85264 21.0166 3.78381 20.9058C3.71493 20.795 3.67037 20.6708 3.6531 20.5414C3.63582 20.4121 3.64626 20.2806 3.68367 20.1556C3.72103 20.0306 3.78456 19.915 3.87002 19.8163C3.95549 19.7177 4.06093 19.6384 4.17936 19.5836C4.29773 19.5288 4.42643 19.4999 4.55694 19.4985C4.68739 19.4973 4.81668 19.5237 4.93616 19.5761C5.05565 19.6286 5.16263 19.7058 5.25 19.8026C5.34209 19.8948 8.38155 22.3816 14 22.3816C19.6184 22.3816 22.75 19.8026 22.75 19.8026C22.934 19.6456 23.1723 19.5673 23.4136 19.5845C23.6549 19.6017 23.8797 19.7131 24.0395 19.8948C24.1965 20.0787 24.2749 20.3171 24.2577 20.5584C24.2404 20.7996 24.129 21.0244 23.9474 21.1842ZM3.77629 6.99999C3.77629 6.75572 3.87336 6.52147 4.0461 6.34873C4.21883 6.17599 4.45309 6.07898 4.69735 6.07898C4.94162 6.07898 5.17593 6.17599 5.34866 6.34873C5.5214 6.52147 5.61842 6.75572 5.61842 6.99999V15.3816C5.61842 15.6259 5.5214 15.8602 5.34866 16.0329C5.17593 16.2056 4.94162 16.3027 4.69735 16.3027C4.45309 16.3027 4.21883 16.2056 4.0461 16.0329C3.87336 15.8602 3.77629 15.6259 3.77629 15.3816V6.99999ZM8.38155 5.15791C8.38092 5.02878 8.40741 4.90098 8.45939 4.78277C8.51132 4.66456 8.58751 4.55858 8.68305 4.47174C8.77858 4.38489 8.89134 4.31908 9.01389 4.27866C9.1365 4.23817 9.26627 4.22392 9.39476 4.23685C9.63903 4.23685 9.87328 4.33387 10.046 4.5066C10.2188 4.67934 10.3158 4.91365 10.3158 5.15791V17.5921C10.3165 17.7212 10.2899 17.849 10.238 17.9672C10.1861 18.0854 10.1099 18.1914 10.0143 18.2783C9.9188 18.3651 9.80604 18.4309 9.68343 18.4714C9.56082 18.5118 9.43111 18.5261 9.30262 18.5131C9.05835 18.5131 8.8241 18.4161 8.65136 18.2434C8.47862 18.0707 8.38155 17.8364 8.38155 17.5921V5.15791ZM13.079 4.69735C13.079 4.45309 13.176 4.21883 13.3487 4.0461C13.5214 3.87336 13.7557 3.77629 14 3.77629C14.1285 3.76342 14.2582 3.77767 14.3808 3.8181C14.5034 3.85858 14.6161 3.92439 14.7117 4.01123C14.8072 4.09808 14.8834 4.20405 14.9354 4.32226C14.9873 4.44048 15.0138 4.56828 15.0132 4.69735V18.1447C15.0276 18.2813 15.0114 18.4195 14.9656 18.549C14.9199 18.6785 14.8457 18.7961 14.7486 18.8933C14.6514 18.9904 14.5338 19.0646 14.4043 19.1104C14.2747 19.1562 14.1366 19.1724 14 19.1579C13.8709 19.1586 13.7431 19.132 13.6249 19.0801C13.5067 19.0282 13.4007 18.952 13.3138 18.8564C13.227 18.7609 13.1612 18.6482 13.1208 18.5255C13.0803 18.4029 13.066 18.2732 13.079 18.1447V4.69735ZM17.7763 5.15791C17.7763 4.91365 17.8733 4.67934 18.0461 4.5066C18.2188 4.33387 18.4531 4.23685 18.6974 4.23685C18.9416 4.23685 19.1759 4.33387 19.3486 4.5066C19.5214 4.67934 19.6184 4.91365 19.6184 5.15791V17.5921C19.6184 17.8364 19.5214 18.0707 19.3486 18.2434C19.1759 18.4161 18.9416 18.5131 18.6974 18.5131C18.4531 18.5131 18.2188 18.4161 18.0461 18.2434C17.8733 18.0707 17.7763 17.8364 17.7763 17.5921V5.15791ZM24.5 0H3.50002C2.80372 0.00598747 2.12507 0.219522 1.55081 0.613318C0.97654 1.00711 0.532831 1.56321 0.276324 2.21054C0.0920902 2.57896 0 3.03946 0 3.50002V24.5C0.00598747 25.1963 0.219522 25.8749 0.613318 26.4492C1.00706 27.0235 1.56321 27.4672 2.21054 27.7237C2.57896 27.9079 3.03946 28 3.50002 28H24.5C25.1963 27.994 25.8749 27.7805 26.4492 27.3867C27.0235 26.9929 27.4672 26.4368 27.7237 25.7895C27.9079 25.4211 28 24.9605 28 24.5V3.50002C28.0016 2.81422 27.8016 2.14309 27.425 1.56999C27.0484 0.996887 26.5117 0.547032 25.8816 0.276324L24.5 0Z" fill="white"/>
</svg>
