<svg width="36" height="36" viewBox="0 0 36 36" fill="none" xmlns="http://www.w3.org/2000/svg">
<path fill-rule="evenodd" clip-rule="evenodd" d="M5.47938 25.1114C5.20038 25.5852 4.88628 26.1351 4.61988 26.5734C4.38138 26.9924 4.50963 27.5333 4.90788 27.7893L10.4924 31.3659C10.689 31.4919 10.9253 31.5311 11.1494 31.4739C11.2613 31.4446 11.3663 31.393 11.4579 31.3223C11.5495 31.2515 11.6259 31.1631 11.6826 31.0622C11.9063 30.6729 12.1943 30.168 12.5075 29.6267C14.7201 25.8264 16.9454 26.2917 20.958 28.2857L26.4957 31.0262C26.5989 31.0776 26.7117 31.1069 26.8268 31.1122C26.9419 31.1176 27.0569 31.0988 27.1644 31.0572C27.3822 30.9726 27.5577 30.8007 27.6513 30.5793L30.3108 24.3198C30.4985 23.873 30.3072 23.3514 29.8811 23.1485C28.0151 22.2362 26.1534 21.3152 24.2961 20.3855C16.7694 16.5807 10.3727 16.8264 5.47938 25.1114Z" fill="white"/>
<path fill-rule="evenodd" clip-rule="evenodd" d="M30.5198 10.907C30.7988 10.4332 31.1129 9.88282 31.3794 9.44453C31.6178 9.02602 31.4896 8.48468 31.0914 8.22863L25.5064 4.65247C25.4098 4.5842 25.2997 4.53732 25.1836 4.51498C25.0674 4.49263 24.9478 4.49532 24.8328 4.52287C24.7165 4.55162 24.6075 4.60423 24.5127 4.67736C24.4179 4.7505 24.3393 4.84255 24.2819 4.94767C24.0588 5.33647 23.7708 5.84182 23.4571 6.38272C21.2449 10.183 19.0192 9.71813 15.0065 7.72373L9.4864 4.99672C9.3832 4.94539 9.27042 4.91615 9.15528 4.91088C9.04013 4.90561 8.92516 4.92443 8.8177 4.96612C8.5999 5.05027 8.4244 5.22262 8.3308 5.44402L5.6713 11.7035C5.48365 12.1504 5.6749 12.6715 6.10105 12.8744C7.96679 13.7868 9.82831 14.7078 11.6856 15.6374C19.2298 19.4381 25.6265 19.183 30.5198 10.907Z" fill="white"/>
</svg>
