<svg width="32" height="32" viewBox="0 0 32 32" fill="none" xmlns="http://www.w3.org/2000/svg">
<path fill-rule="evenodd" clip-rule="evenodd" d="M4.87056 22.3215C4.62256 22.7427 4.34336 23.2315 4.10656 23.6211C3.89456 23.9935 4.00856 24.4743 4.36256 24.7019L9.32656 27.8811C9.50136 27.9931 9.71136 28.0279 9.91056 27.9771C10.0101 27.951 10.1033 27.9051 10.1848 27.8422C10.2662 27.7794 10.3341 27.7007 10.3846 27.6111C10.5834 27.2651 10.8394 26.8163 11.1178 26.3351C13.0846 22.9571 15.0626 23.3707 18.6294 25.1431L23.5518 27.5791C23.6435 27.6247 23.7437 27.6508 23.8461 27.6555C23.9484 27.6603 24.0506 27.6436 24.1462 27.6067C24.3398 27.5315 24.4958 27.3787 24.579 27.1819L26.943 21.6179C27.1098 21.2207 26.9398 20.7571 26.561 20.5767C24.9023 19.7658 23.2475 18.9471 21.5966 18.1207C14.9062 14.7387 9.22016 14.9571 4.87056 22.3215Z" fill="url(#paint0_linear_1_2788)"/>
<path fill-rule="evenodd" clip-rule="evenodd" d="M27.1287 9.69513C27.3767 9.27393 27.6559 8.78473 27.8927 8.39513C28.1047 8.02313 27.9907 7.54193 27.6367 7.31433L22.6723 4.13553C22.5865 4.07485 22.4886 4.03318 22.3854 4.01331C22.2821 3.99345 22.1758 3.99584 22.0735 4.02033C21.9702 4.04589 21.8733 4.09265 21.789 4.15766C21.7047 4.22266 21.6349 4.30449 21.5839 4.39793C21.3855 4.74353 21.1295 5.19273 20.8507 5.67353C18.8843 9.05153 16.9059 8.63833 13.3391 6.86553L8.43233 4.44153C8.3406 4.3959 8.24035 4.36991 8.138 4.36522C8.03565 4.36054 7.93345 4.37727 7.83793 4.41433C7.64433 4.48913 7.48833 4.64233 7.40513 4.83913L5.04113 10.4031C4.87433 10.8003 5.04433 11.2635 5.42313 11.4439C7.08157 12.255 8.73625 13.0736 10.3871 13.8999C17.0931 17.2783 22.7791 17.0515 27.1287 9.69513Z" fill="url(#paint1_linear_1_2788)"/>
<defs>
<linearGradient id="paint0_linear_1_2788" x1="26.809" y1="29.5227" x2="20.8666" y2="16.4235" gradientUnits="userSpaceOnUse">
<stop offset="0.18" stop-color="#0052CC"/>
<stop offset="1" stop-color="#2684FF"/>
</linearGradient>
<linearGradient id="paint1_linear_1_2788" x1="5.19033" y1="2.48993" x2="11.1419" y2="15.5951" gradientUnits="userSpaceOnUse">
<stop offset="0.18" stop-color="#0052CC"/>
<stop offset="1" stop-color="#2684FF"/>
</linearGradient>
</defs>
</svg>
