<svg width="36" height="36" viewBox="0 0 36 36" fill="none" xmlns="http://www.w3.org/2000/svg">
<path d="M21.3246 21.3314C19.1745 22.1363 16.8059 22.1367 14.6556 21.3323C13.8504 19.1838 13.8499 16.8166 14.6542 14.6678C16.8047 13.8623 19.1741 13.8623 21.3246 14.6678C22.1294 16.8162 22.1294 19.1829 21.3246 21.3314ZM33.5308 15.3747H24.3315L30.8362 8.87359C29.8129 7.43811 28.5573 6.18339 27.121 5.16109L20.6158 11.6627V2.46874C18.877 2.17709 17.1018 2.17709 15.363 2.46874V11.6622L8.85779 5.16154C7.42178 6.18392 6.16619 7.43846 5.14259 8.87359L11.6482 15.3747H2.44889C2.22164 17.1612 2.14829 18.8411 2.44889 20.6244H11.6487L5.14259 27.1256C6.16602 28.5609 7.42146 29.8155 8.85734 30.8381L15.363 24.3365V33.5309C17.0995 33.8216 18.8793 33.8216 20.6158 33.5309V24.3365L27.1215 30.8381C28.5573 29.8155 29.8128 28.5608 30.8362 27.1256L24.3306 20.6244H33.5308C33.8228 18.8867 33.8228 17.1125 33.5308 15.3747Z" fill="white"/>
</svg>
