<svg width="32" height="32" viewBox="0 0 32 32" fill="none" xmlns="http://www.w3.org/2000/svg">
<path fill-rule="evenodd" clip-rule="evenodd" d="M5.716 29.2181L2.2768 24.9341C1.45286 23.9136 1.00238 22.6422 1 21.3305V5.81533C1 3.86133 2.5636 2.23933 4.5808 2.10173L20.532 1.01253C21.6864 0.932249 22.8346 1.2394 23.7948 1.88533L29.3992 5.67453C30.4024 6.35253 31 7.46133 31 8.64493V26.2837C31 28.1961 29.4624 29.7797 27.488 29.9013L9.7832 30.9913C8.2072 31.0881 6.684 30.4241 5.716 29.2181Z" fill="white"/>
<path d="M11.2486 13.5802V13.377C11.2486 12.8618 11.661 12.435 12.1926 12.3994L16.0638 12.141L21.4178 20.025V13.1054L20.0394 12.9214V12.8254C20.0394 12.3042 20.4614 11.8746 20.9994 11.847L24.5222 11.6666V12.1734C24.5222 12.4114 24.3454 12.615 24.1026 12.6558L23.255 12.7994V24.005L22.191 24.371C21.3026 24.6766 20.313 24.3494 19.8042 23.5814L14.6066 15.7386V23.2242L16.2066 23.5306L16.1842 23.6786C16.1142 24.1438 15.713 24.495 15.2274 24.5166L11.2486 24.6938C11.1962 24.1938 11.5706 23.747 12.0874 23.6926L12.611 23.6374V13.6566L11.2486 13.5802Z" fill="black"/>
<path fill-rule="evenodd" clip-rule="evenodd" d="M20.6739 2.96596L4.72307 4.05476C3.76747 4.12036 3.02707 4.88836 3.02707 5.81396V21.3288C3.02707 22.1988 3.32627 23.044 3.87787 23.7312L7.31707 28.016C7.87307 28.7084 8.74827 29.09 9.65387 29.0344L27.3579 27.9444C28.2659 27.8884 28.9719 27.1612 28.9719 26.2824V8.64316C28.9719 8.09956 28.6975 7.59036 28.2363 7.27836L22.6323 3.48916C22.056 3.1017 21.3666 2.91758 20.6739 2.96596ZM5.51387 6.05596C5.29147 5.89196 5.39707 5.54956 5.67587 5.52956L20.7811 4.44596C21.2604 4.41093 21.737 4.5431 22.1299 4.81996L25.1607 6.96716C25.2759 7.04876 25.2219 7.22476 25.0795 7.23236L9.08307 8.10236C8.6012 8.12934 8.12498 7.98762 7.73627 7.70156L5.51387 6.05596ZM8.33267 10.8296C8.33267 10.31 8.75267 9.88076 9.28947 9.85156L26.2023 8.93036C26.7255 8.90236 27.1659 9.30436 27.1659 9.81076V25.0844C27.1659 25.6032 26.7475 26.032 26.2115 26.0624L9.40587 27.0184C8.82347 27.0516 8.33267 26.6044 8.33267 26.0404V10.8296Z" fill="black"/>
</svg>
