<svg width="32" height="32" viewBox="0 0 32 32" fill="none" xmlns="http://www.w3.org/2000/svg">
<path d="M29.6649 15.2164L17.2077 3.168L16.0001 2L6.62294 11.0696L2.33534 15.2164C2.22936 15.3175 2.145 15.4391 2.08736 15.5738C2.02972 15.7085 2 15.8535 2 16C2 16.1465 2.02972 16.2915 2.08736 16.4262C2.145 16.5609 2.22936 16.6825 2.33534 16.7836L10.9025 25.0696L16.0001 30L25.3773 20.9304L25.5225 20.79L29.6649 16.7836C29.7709 16.6825 29.8553 16.5609 29.9129 16.4262C29.9706 16.2915 30.0003 16.1465 30.0003 16C30.0003 15.8535 29.9706 15.7085 29.9129 15.5738C29.8553 15.4391 29.7709 15.3175 29.6649 15.2164ZM16.0001 20.14L11.7201 16L16.0001 11.8604L20.2801 16L16.0001 20.14Z" fill="#2684FF"/>
<path fill-rule="evenodd" clip-rule="evenodd" d="M16.0006 11.8605C13.1986 9.15013 13.185 4.76013 15.9702 2.03333L6.60419 11.0881L11.7018 16.0185L16.0006 11.8605Z" fill="url(#paint0_linear_1_2809)"/>
<path fill-rule="evenodd" clip-rule="evenodd" d="M20.2912 15.9875L16 20.1379C17.3524 21.4451 18.112 23.2187 18.112 25.0683C18.112 26.9175 17.3524 28.6911 16 29.9983L25.3888 20.9175L20.2912 15.9875Z" fill="url(#paint1_linear_1_2809)"/>
<defs>
<linearGradient id="paint0_linear_1_2809" x1="15.2366" y1="7.67333" x2="8.09739" y2="10.7905" gradientUnits="userSpaceOnUse">
<stop offset="0.18" stop-color="#0052CC"/>
<stop offset="1" stop-color="#2684FF"/>
</linearGradient>
<linearGradient id="paint1_linear_1_2809" x1="16.8176" y1="24.2771" x2="23.944" y2="21.1823" gradientUnits="userSpaceOnUse">
<stop offset="0.18" stop-color="#0052CC"/>
<stop offset="1" stop-color="#2684FF"/>
</linearGradient>
</defs>
</svg>
