<svg width="32" height="32" viewBox="0 0 32 32" fill="none" xmlns="http://www.w3.org/2000/svg">
<path d="M26.5 15C26.9945 15 27.4778 14.8534 27.8889 14.5787C28.3 14.304 28.6205 13.9135 28.8097 13.4567C28.9989 12.9999 29.0484 12.4972 28.952 12.0123C28.8555 11.5273 28.6174 11.0819 28.2678 10.7322C27.9181 10.3826 27.4727 10.1445 26.9877 10.048C26.5028 9.95157 26.0001 10.0011 25.5433 10.1903C25.0865 10.3795 24.696 10.7 24.4213 11.1111C24.1466 11.5222 24 12.0055 24 12.5V15H26.5ZM19.5 15C19.8283 15 20.1534 14.9353 20.4567 14.8097C20.76 14.6841 21.0356 14.4999 21.2678 14.2678C21.4999 14.0356 21.6841 13.76 21.8097 13.4567C21.9353 13.1534 22 12.8283 22 12.5V5.5C22 4.83696 21.7366 4.20107 21.2678 3.73223C20.7989 3.26339 20.163 3 19.5 3C18.837 3 18.2011 3.26339 17.7322 3.73223C17.2634 4.20107 17 4.83696 17 5.5V12.5C17 13.163 17.2634 13.7989 17.7322 14.2678C18.2011 14.7366 18.837 15 19.5 15Z" fill="#2EB67D"/>
<path d="M5.5 17C5.00555 17 4.5222 17.1466 4.11108 17.4213C3.69995 17.696 3.37952 18.0865 3.1903 18.5433C3.00108 19.0001 2.95157 19.5028 3.04804 19.9877C3.1445 20.4727 3.3826 20.9181 3.73223 21.2678C4.08187 21.6174 4.52732 21.8555 5.01228 21.952C5.49723 22.0484 5.99989 21.9989 6.45671 21.8097C6.91353 21.6205 7.30397 21.3 7.57868 20.8889C7.85338 20.4778 8 19.9945 8 19.5V17H5.5ZM12.5 17C11.837 17 11.2011 17.2634 10.7322 17.7322C10.2634 18.2011 10 18.837 10 19.5V26.5C10 27.163 10.2634 27.7989 10.7322 28.2678C11.2011 28.7366 11.837 29 12.5 29C13.163 29 13.7989 28.7366 14.2678 28.2678C14.7366 27.7989 15 27.163 15 26.5V19.5C15 18.837 14.7366 18.2011 14.2678 17.7322C13.7989 17.2634 13.163 17 12.5 17Z" fill="#E01E5A"/>
<path d="M17 26.5C17 26.9945 17.1466 27.4778 17.4213 27.8889C17.696 28.3 18.0865 28.6205 18.5433 28.8097C19.0001 28.9989 19.5028 29.0484 19.9877 28.952C20.4727 28.8555 20.9181 28.6174 21.2678 28.2678C21.6174 27.9181 21.8555 27.4727 21.952 26.9877C22.0484 26.5028 21.9989 26.0001 21.8097 25.5433C21.6205 25.0865 21.3 24.696 20.8889 24.4213C20.4778 24.1466 19.9945 24 19.5 24H17V26.5ZM17 19.5C17 19.8283 17.0647 20.1534 17.1903 20.4567C17.3159 20.76 17.5001 21.0356 17.7322 21.2678C17.9644 21.4999 18.24 21.6841 18.5433 21.8097C18.8466 21.9353 19.1717 22 19.5 22H26.5C27.163 22 27.7989 21.7366 28.2678 21.2678C28.7366 20.7989 29 20.163 29 19.5C29 18.837 28.7366 18.2011 28.2678 17.7322C27.7989 17.2634 27.163 17 26.5 17H19.5C18.837 17 18.2011 17.2634 17.7322 17.7322C17.2634 18.2011 17 18.837 17 19.5Z" fill="#ECB22E"/>
<path d="M15 5.5C15 5.00555 14.8534 4.5222 14.5787 4.11108C14.304 3.69995 13.9135 3.37952 13.4567 3.1903C12.9999 3.00108 12.4972 2.95157 12.0123 3.04804C11.5273 3.1445 11.0819 3.3826 10.7322 3.73223C10.3826 4.08187 10.1445 4.52732 10.048 5.01228C9.95157 5.49723 10.0011 5.99989 10.1903 6.45671C10.3795 6.91353 10.7 7.30397 11.1111 7.57868C11.5222 7.85338 12.0055 8 12.5 8H15V5.5ZM15 12.5C15 11.837 14.7366 11.2011 14.2678 10.7322C13.7989 10.2634 13.163 10 12.5 10H5.5C4.83696 10 4.20107 10.2634 3.73223 10.7322C3.26339 11.2011 3 11.837 3 12.5C3 13.163 3.26339 13.7989 3.73223 14.2678C4.20107 14.7366 4.83696 15 5.5 15H12.5C13.163 15 13.7989 14.7366 14.2678 14.2678C14.7366 13.7989 15 13.163 15 12.5Z" fill="#36C5F0"/>
</svg>
