<svg width="32" height="32" viewBox="0 0 32 32" fill="none" xmlns="http://www.w3.org/2000/svg">
<path d="M16 30C23.732 30 30 23.732 30 16C30 8.26801 23.732 2 16 2C8.26801 2 2 8.26801 2 16C2 23.732 8.26801 30 16 30Z" fill="#00A82D"/>
<path d="M12.7 11.044C12.7 11.2236 12.6856 11.522 12.5108 11.716C12.3216 11.8952 12.0308 11.91 11.856 11.91C10.8736 11.91 9.5112 11.6632 8.582 12.0444C10 9.5 12.7468 7.8092 12.7292 7.9552C12.5984 8.962 12.7 10.0312 12.7 11.044ZM15.6392 22.5956C15.6392 21.3568 16.6288 20.342 17.8512 20.342C18.2152 20.342 18.506 20.6404 18.506 21.0136C18.506 21.2672 18.3748 21.4764 18.1712 21.5956C17.9492 21.732 17.642 21.6684 17.4436 21.8492C17.298 21.9688 17.1816 22.1628 17.1816 22.3716C17.1816 22.5956 17.2692 22.8044 17.4144 22.9536C17.5426 23.0864 17.6964 23.192 17.8665 23.2638C18.0365 23.3356 18.2194 23.3723 18.404 23.3716C19.3936 23.3716 20.194 22.5508 20.194 21.5356C20.194 20.6256 19.5972 19.8196 18.8116 19.4616C17.6188 18.8496 15.7944 19.1976 15.654 17.2824C15.4352 18.2956 14.9528 20.1032 13.646 20.1032C9.698 20.3436 8.2752 17.146 8 13.7604C8 13.0292 8.4364 12.5364 8.9896 12.462H11.9576C12.4672 12.462 12.7584 12.328 12.9472 12.1488C13.1948 11.91 13.2528 11.5668 13.2528 11.1636V8.0148C13.2528 7.3812 13.806 7 14.5188 7C14.9388 7 15.3332 7.0148 15.7412 7.1196C16.6288 7.3436 16.818 8.2684 16.818 8.2684C16.818 8.2684 18.4912 8.5672 19.3352 8.7164C20.1356 8.8656 22.1144 9 22.4928 11.0444C23.3808 15.9096 22.842 20.6256 22.7984 20.6256C22.1728 25.222 18.448 24.9984 18.448 24.9984C17.094 24.9984 15.64 24.0744 15.64 22.5956H15.6392ZM20.0048 14.6708C19.5248 14.626 19.1168 14.82 18.9716 15.1932C18.7652 15.722 20.8924 16.1616 20.8924 15.432C20.834 15.014 20.4852 14.7308 20.0048 14.6708Z" fill="white"/>
</svg>
