<svg width="32" height="32" viewBox="0 0 32 32" fill="none" xmlns="http://www.w3.org/2000/svg">
<g clip-path="url(#clip0_1_2802)">
<path d="M16 30C23.732 30 30 23.732 30 16C30 8.26801 23.732 2 16 2C8.26801 2 2 8.26801 2 16C2 23.732 8.26801 30 16 30Z" fill="#3290E8"/>
<path fill-rule="evenodd" clip-rule="evenodd" d="M22 8H10C8.9096 7.9984 8.002 8.912 8 10V22C8 22.5304 8.21071 23.0391 8.58579 23.4142C8.96086 23.7893 9.46957 24 10 24H22C23.0904 24.0016 23.998 23.088 24 22V10C24 9.46957 23.7893 8.96086 23.4142 8.58579C23.0391 8.21072 22.5304 8 22 8ZM18.1328 10.9332C18.1381 10.7953 18.1967 10.6647 18.2962 10.569C18.3957 10.4733 18.5284 10.4199 18.6664 10.4199C18.8044 10.4199 18.9371 10.4733 19.0366 10.569C19.1361 10.6647 19.1947 10.7953 19.2 10.9332V18.0592C19.2 18.3532 18.9608 18.5924 18.6668 18.5924C18.3844 18.5924 18.134 18.3424 18.1332 18.0592L18.1328 10.9332ZM15.4664 10.6636C15.4664 10.5221 15.5226 10.3864 15.6227 10.2863C15.7228 10.1862 15.8585 10.13 16 10.13C16.1415 10.13 16.2772 10.1862 16.3773 10.2863C16.4774 10.3864 16.5336 10.5221 16.5336 10.6636V18.3968C16.5336 18.6916 16.2944 18.9304 16 18.9304C15.7176 18.9304 15.4672 18.68 15.4668 18.3968L15.4664 10.6636ZM12.8 10.9332C12.8065 10.7961 12.8655 10.6668 12.9649 10.5721C13.0642 10.4774 13.1962 10.4245 13.3334 10.4245C13.4706 10.4245 13.6026 10.4774 13.7019 10.5721C13.8013 10.6668 13.8603 10.7961 13.8668 10.9332V18.0592C13.8668 18.3532 13.628 18.5924 13.3332 18.5924C13.0508 18.5924 12.8008 18.3424 12.8 18.0592V10.9332ZM10.1332 12C10.1332 11.8585 10.1894 11.7229 10.2894 11.6228C10.3895 11.5228 10.5251 11.4666 10.6666 11.4666C10.8081 11.4666 10.9437 11.5228 11.0438 11.6228C11.1438 11.7229 11.2 11.8585 11.2 12V16.7968C11.2 17.0916 10.9608 17.3304 10.6668 17.3304C10.5257 17.329 10.3908 17.2724 10.291 17.1726C10.1912 17.0728 10.1346 16.9379 10.1332 16.7968V12ZM21.6808 20.1352C21.5988 20.2064 19.6228 21.8632 16 21.8632C12.3776 21.8632 10.4028 20.2056 10.3192 20.1348C10.2131 20.0419 10.1476 19.9111 10.1369 19.7705C10.1262 19.6299 10.1711 19.4907 10.262 19.3828C10.446 19.1688 10.7972 19.1412 11.012 19.3244C11.0432 19.3508 12.8076 20.7968 15.9996 20.7968C19.2316 20.7968 20.9688 19.34 20.9856 19.3256C21.2004 19.1416 21.5528 19.168 21.7376 19.3832C21.9276 19.6032 21.9016 19.9464 21.6808 20.1352ZM21.8668 16.7972C21.8668 17.0916 21.6276 17.3308 21.3332 17.3308C21.1922 17.3293 21.0573 17.2726 20.9576 17.1729C20.858 17.0731 20.8014 16.9382 20.8 16.7972V12C20.8 11.8585 20.8562 11.7229 20.9562 11.6228C21.0563 11.5228 21.1919 11.4666 21.3334 11.4666C21.4749 11.4666 21.6105 11.5228 21.7106 11.6228C21.8106 11.7229 21.8668 11.8585 21.8668 12V16.7972Z" fill="white"/>
</g>
<defs>
<clipPath id="clip0_1_2802">
<rect width="32" height="32" fill="white"/>
</clipPath>
</defs>
</svg>
