<svg width="134" height="30" viewBox="0 0 134 30" fill="none" xmlns="http://www.w3.org/2000/svg">
<g clip-path="url(#clip0_1_2718)">
<path d="M3.41793 23.3979C2.83276 23.3991 2.25774 23.245 1.75161 22.9512C1.24548 22.6574 0.826381 22.2345 0.537133 21.7256C0.252314 21.2203 0.110267 20.6471 0.126208 20.0672C0.14215 19.4873 0.315479 18.9227 0.62763 18.4339L6.56017 9.11443C6.86381 8.61355 7.29489 8.20229 7.80939 7.92263C8.32393 7.64297 8.90342 7.50494 9.4887 7.52263C10.0736 7.53665 10.6442 7.70587 11.1422 8.01296C11.6402 8.32004 12.0477 8.75396 12.323 9.27035C12.876 10.3165 12.8069 11.5751 12.1445 12.557L6.21578 21.8765C5.9151 22.3451 5.50106 22.7303 5.01197 22.9963C4.52287 23.2622 3.97459 23.4003 3.41793 23.3979Z" fill="#F62B54"/>
<path d="M13.5937 23.3978C12.3971 23.3978 11.2961 22.7579 10.7179 21.7293C10.4337 21.2254 10.292 20.6536 10.308 20.0753C10.3239 19.497 10.4969 18.9339 10.8084 18.4464L16.7296 9.14834C17.0288 8.64042 17.4583 8.22184 17.9737 7.93599C18.4891 7.6501 19.0716 7.50738 19.6607 7.52258C20.8673 7.54899 21.9608 8.22419 22.5139 9.28038C23.0631 10.3365 22.9827 11.6027 22.3002 12.5821L16.3802 21.8802C16.0805 22.3469 15.6681 22.7305 15.1811 22.9958C14.6941 23.261 14.1482 23.3993 13.5937 23.3978Z" fill="#FFCC00"/>
<path d="M23.542 23.4758C25.2289 23.4758 26.5963 22.1366 26.5963 20.4846C26.5963 18.8326 25.2289 17.4934 23.542 17.4934C21.8552 17.4934 20.4878 18.8326 20.4878 20.4846C20.4878 22.1366 21.8552 23.4758 23.542 23.4758Z" fill="#00CA72"/>
<path fill-rule="evenodd" clip-rule="evenodd" d="M133.817 8.28073H129.353L126.225 16.3491L123.113 8.28073H118.65L124.076 21.0302L120.701 29.4594H125.131L133.817 8.28073ZM106.673 15.3722C106.673 17.4091 108.453 18.7494 110.201 18.7494C111.919 18.7494 113.607 17.5021 113.607 15.3709C113.607 13.2397 111.919 11.9912 110.201 11.9912C108.453 11.9912 106.673 13.3328 106.673 15.3709V15.3722ZM113.607 22.4912V20.8781C112.702 22.2486 110.59 22.7666 109.507 22.7666C105.92 22.7666 102.332 19.9376 102.332 15.3709C102.332 10.8055 105.919 7.97647 109.507 7.97647C110.411 7.97647 112.522 8.27821 113.607 9.86249V8.28576H117.767V22.4938L113.607 22.4925V22.4912ZM101.148 22.4912H96.9872V20.7259C96.292 22.0336 94.6065 22.7955 92.857 22.7955C89.2383 22.7955 86.0421 19.9049 86.0421 15.4287C86.0421 10.8684 89.2383 7.97395 92.857 7.97395C94.6041 7.97395 96.2947 8.70321 96.9872 10.0121V0.540527H101.148V22.4912ZM96.8967 15.3395C96.8967 13.2095 95.3595 11.961 93.6413 11.961C91.8615 11.961 90.3835 13.3001 90.3835 15.3395C90.3835 17.4443 91.8615 18.777 93.6399 18.777C95.3911 18.7796 96.8967 17.3789 96.8967 15.3395ZM75.7558 14.9723C75.7558 12.8122 76.872 12.0817 78.3487 12.0817C79.7652 12.0817 80.7909 13.0247 80.7909 14.9107V22.4887H84.9813V13.9992C84.9813 9.95302 82.9904 7.97395 79.8244 7.97395C78.1664 7.97395 76.5087 8.91694 75.7544 10.3478V8.28073H71.5664V22.4887H75.7558V14.9723ZM63.0574 22.7327C59.0779 22.7327 55.7585 19.8119 55.7585 15.3382C55.7585 10.8621 59.0742 7.97017 63.0574 7.97017C67.0403 7.97017 70.3852 10.8621 70.3852 15.3382C70.3852 19.8144 67.0366 22.7339 63.0574 22.7339V22.7327ZM63.0574 18.596C64.8045 18.596 66.2537 17.316 66.2537 15.3395C66.2537 13.422 64.8059 12.1131 63.0574 12.1131C62.6364 12.1065 62.2184 12.1857 61.829 12.3459C61.4396 12.5061 61.0869 12.7439 60.7924 13.0448C60.4961 13.3474 60.2639 13.7064 60.1088 14.1006C59.954 14.4948 59.8802 14.9161 59.8914 15.3395C59.8925 17.3185 61.3392 18.596 63.0574 18.596ZM48.2461 12.083C49.4817 12.083 50.5676 13.0574 50.5676 14.912V22.4912H54.728V14.4216C54.728 10.1315 52.6429 7.97143 49.3007 7.97143C48.3076 7.97143 46.4374 8.27321 45.0801 10.4962C44.2958 8.85284 42.7888 8.00035 40.5615 8.00035C39.7881 7.9964 39.0304 8.21534 38.3781 8.63095C37.7258 9.0466 37.2071 9.64131 36.884 10.344V8.28199H32.6909V22.49H36.8803V14.9723C36.8803 12.8122 38.0567 12.0817 39.3222 12.0817C40.5289 12.0817 41.6124 13.0247 41.6437 14.8202V22.49H45.8341V14.9723C45.8341 12.9065 46.92 12.0842 48.2461 12.0842V12.083Z" fill="#535862"/>
</g>
<defs>
<clipPath id="clip0_1_2718">
<rect width="133.75" height="28.9189" fill="white" transform="translate(0.125 0.540527)"/>
</clipPath>
</defs>
</svg>
