<svg width="132" height="28" viewBox="0 0 132 28" fill="none" xmlns="http://www.w3.org/2000/svg">
<g clip-path="url(#clip0_1_2719)">
<path d="M53.0274 14.6662L50.7638 8.62696C50.7429 8.57254 50.706 8.52575 50.658 8.49275C50.61 8.45975 50.5532 8.44208 50.495 8.44208C50.4368 8.44208 50.38 8.45975 50.332 8.49275C50.2841 8.52575 50.2473 8.57254 50.2263 8.62696L47.9627 14.6672C47.947 14.7101 47.942 14.7561 47.948 14.8013C47.9542 14.8466 47.9713 14.8897 47.9977 14.9267C48.0242 14.9639 48.0594 14.9939 48.1001 15.0144C48.1409 15.0348 48.186 15.0448 48.2314 15.0438H52.7779C52.8456 15.0445 52.911 15.0195 52.9611 14.9739C53.0111 14.9282 53.042 14.8651 53.0476 14.7976C53.0518 14.7531 53.0449 14.7083 53.0274 14.6672V14.6662ZM54.0821 18.0552H46.9079C46.8495 18.0556 46.7923 18.0738 46.7444 18.1074C46.6964 18.141 46.6597 18.1886 46.6392 18.2435L45.2194 22.0109C45.199 22.0658 45.1625 22.1131 45.1147 22.1467C45.0669 22.1804 45.0101 22.1986 44.9516 22.1992H41.8413C41.7938 22.1999 41.7469 22.1887 41.7048 22.1667C41.6627 22.1446 41.6268 22.1124 41.6002 22.0729C41.5736 22.0334 41.5573 21.988 41.5526 21.9406C41.548 21.8931 41.5551 21.8454 41.5735 21.8014L48.7285 4.19716C48.7498 4.1439 48.7874 4.09871 48.8358 4.06804C48.8842 4.03736 48.941 4.02274 48.9982 4.02627H51.9707C52.0271 4.02662 52.0823 4.04282 52.13 4.07303C52.1777 4.10324 52.2159 4.14624 52.2404 4.19716L59.3944 21.8014C59.4128 21.8454 59.42 21.8934 59.4153 21.9409C59.4105 21.9884 59.3941 22.034 59.3675 22.0736C59.3408 22.1131 59.3048 22.1454 59.2625 22.1675C59.2203 22.1897 59.1733 22.2009 59.1256 22.2002H56.0201C55.9615 22.1997 55.9044 22.1814 55.8564 22.1476C55.8084 22.1138 55.7718 22.0662 55.7514 22.0109L54.3316 18.2435C54.3181 18.188 54.2859 18.1388 54.2405 18.1044C54.195 18.0699 54.1391 18.0522 54.0821 18.0542V18.0552ZM60.8729 10.1978H63.5401C63.6154 10.1993 63.6873 10.2297 63.7409 10.2827C63.7945 10.3356 63.8257 10.4073 63.8281 10.4827V21.9173C63.8257 21.9926 63.7944 22.0639 63.7408 22.1167C63.6871 22.1693 63.6153 22.1992 63.5401 22.2002H60.8739C60.7987 22.1995 60.7266 22.1697 60.6728 22.117C60.6189 22.0642 60.5874 21.9927 60.5849 21.9173V10.4827C60.5845 10.4447 60.5918 10.4072 60.6062 10.3721C60.6207 10.3371 60.642 10.3053 60.669 10.2786C60.696 10.2521 60.7281 10.2312 60.7632 10.2173C60.7985 10.2034 60.8361 10.1968 60.8739 10.1978H60.8729ZM73.5356 12.9805C73.5334 13.0561 73.5023 13.1279 73.4486 13.1811C73.3951 13.2343 73.3231 13.2648 73.2476 13.2662H73.1705C71.8471 13.2662 70.8877 13.5675 70.2741 14.1931C69.6605 14.8188 69.3532 15.8403 69.3532 17.277V21.897C69.3508 21.9723 69.3197 22.0438 69.2664 22.0968C69.213 22.1497 69.1413 22.1802 69.0662 22.1818H66.4366C66.3615 22.1802 66.2899 22.1497 66.2365 22.0968C66.1831 22.0438 66.152 21.9723 66.1495 21.897V10.4827C66.152 10.4073 66.1832 10.3356 66.2369 10.2827C66.2904 10.2297 66.3623 10.1993 66.4375 10.1978H69.046C69.1215 10.1991 69.1935 10.2293 69.2474 10.2823C69.3011 10.3353 69.3325 10.4071 69.3349 10.4827V12.7352H69.3918C69.6582 11.8796 70.1804 11.1267 70.8877 10.5782C71.6271 10.0555 72.5168 9.78961 73.421 9.82128H73.5549V12.9814H73.5356V12.9805ZM80.8061 12.8685C80.7314 12.8697 80.6599 12.8995 80.6065 12.9521C80.5531 13.0045 80.5218 13.0755 80.5191 13.1504V17.9027C80.4834 18.2744 80.5855 18.6451 80.8061 18.9454C80.9988 19.152 81.3243 19.2467 81.804 19.2467H82.0728C82.1479 19.2484 82.2195 19.2788 82.2729 19.3318C82.3263 19.3848 82.3574 19.4563 82.3598 19.5315V21.9163C82.3574 21.9914 82.3262 22.0627 82.2727 22.1153C82.2194 22.168 82.1477 22.1981 82.0728 22.1992H80.9419C79.7706 22.1992 78.87 21.896 78.2372 21.309C77.6034 20.7046 77.297 19.8327 77.297 18.6413V13.1504C77.2943 13.0752 77.2628 13.0039 77.209 12.9514C77.1552 12.8989 77.0832 12.8691 77.0081 12.8685H75.3398C75.2645 12.8668 75.1928 12.8362 75.1394 12.783C75.0859 12.7298 75.0549 12.6581 75.0527 12.5827V10.4827C75.0549 10.4074 75.086 10.3357 75.1394 10.2827C75.1929 10.2297 75.2646 10.1993 75.3398 10.1978H77.009C77.0842 10.1969 77.156 10.1669 77.2097 10.1143C77.2633 10.0616 77.2946 9.99025 77.297 9.91494V5.67344C77.2995 5.59821 77.3309 5.52682 77.3845 5.47413C77.4382 5.42143 77.51 5.3915 77.5851 5.39054H80.2513C80.3264 5.3915 80.3983 5.42143 80.4519 5.47413C80.5056 5.52682 80.5369 5.59821 80.5393 5.67344V9.91494C80.5418 9.99025 80.5731 10.0616 80.6268 10.1143C80.6804 10.1669 80.7523 10.1969 80.8273 10.1978H82.7451C82.8204 10.1993 82.8923 10.2297 82.9458 10.2827C82.9995 10.3356 83.0307 10.4073 83.0331 10.4827V12.5827C83.0309 12.6583 82.9998 12.7301 82.9461 12.7833C82.8926 12.8365 82.8206 12.867 82.7451 12.8685H80.8061ZM92.9881 18.6229C93.2949 18.2977 93.5329 17.9137 93.6878 17.4939C93.8427 17.0741 93.9114 16.6272 93.8897 16.1802C93.9069 15.7336 93.8361 15.288 93.6814 14.8689C93.5267 14.4498 93.2912 14.0653 92.9881 13.7374C92.3387 13.1414 91.49 12.8108 90.6094 12.8108C89.7289 12.8108 88.8802 13.1414 88.2307 13.7374C87.924 14.0627 87.686 14.4468 87.5311 14.8665C87.3762 15.2863 87.3075 15.7331 87.3291 16.1802C87.3121 16.6267 87.3829 17.0723 87.5376 17.4914C87.6923 17.9106 87.9278 18.295 88.2307 18.6229C88.5421 18.9336 88.9141 19.1764 89.3236 19.3359C89.7331 19.4954 90.1711 19.5683 90.6099 19.5498C91.0495 19.5744 91.4893 19.5044 91.8996 19.3446C92.31 19.1847 92.6815 18.9387 92.9891 18.6229H92.9881ZM86.8485 21.8227C85.9477 21.3107 85.2147 20.5472 84.739 19.6251C84.2337 18.5472 83.9716 17.3708 83.9716 16.1797C83.9716 14.9886 84.2337 13.8122 84.739 12.7342C85.2205 11.8166 85.952 11.0549 86.8485 10.5377C87.7494 10.0295 88.7681 9.76847 89.8018 9.78073C90.647 9.75997 91.4842 9.94902 92.2388 10.3311C92.9058 10.6851 93.4632 11.2158 93.8502 11.8653H93.908V10.4614C93.9107 10.3864 93.942 10.3153 93.9954 10.2627C94.0488 10.2101 94.1202 10.18 94.1951 10.1785H96.8238C96.8988 10.1798 96.9705 10.2097 97.0241 10.2624C97.0777 10.315 97.1091 10.3863 97.1118 10.4614V21.8951C97.1095 21.9709 97.0783 22.0428 97.0245 22.0961C96.9706 22.1493 96.8984 22.1797 96.8228 22.1809H94.197C94.1216 22.1794 94.0496 22.1489 93.996 22.0957C93.9424 22.0425 93.9112 21.9707 93.909 21.8951V20.4951H93.8512C93.4642 21.1453 92.9065 21.6763 92.2388 22.0302C91.4837 22.4109 90.6468 22.5995 89.8018 22.5796C88.7681 22.592 87.7494 22.3309 86.8485 21.8227ZM108.067 18.6229C108.373 18.2977 108.611 17.9136 108.766 17.4938C108.921 17.0741 108.99 16.6272 108.968 16.1802C108.986 15.7336 108.914 15.288 108.76 14.8689C108.605 14.4498 108.369 14.0653 108.067 13.7374C107.418 13.1411 106.568 12.8103 105.688 12.8103C104.807 12.8103 103.958 13.1411 103.308 13.7374C103.002 14.0629 102.764 14.447 102.609 14.8667C102.455 15.2865 102.386 15.7332 102.408 16.1802C102.39 16.6267 102.462 17.0723 102.616 17.4914C102.771 17.9106 103.006 18.295 103.309 18.6229C103.62 18.9336 103.992 19.1764 104.403 19.3359C104.812 19.4954 105.249 19.5683 105.689 19.5498C106.128 19.5743 106.568 19.5042 106.978 19.3444C107.389 19.1845 107.759 18.9386 108.068 18.6229H108.067ZM104.077 22.0293C103.409 21.6751 102.852 21.1441 102.465 20.4941H102.407V21.896C102.404 21.9714 102.373 22.0428 102.32 22.0958C102.266 22.1487 102.195 22.1792 102.12 22.1809H99.4525C99.3774 22.1792 99.3061 22.1487 99.2522 22.0958C99.1992 22.0428 99.1674 21.9714 99.1655 21.896V4.29082C99.1674 4.21565 99.1992 4.1443 99.2522 4.09148C99.3061 4.03866 99.3774 4.00841 99.4525 4.00696H102.12C102.195 4.00815 102.266 4.03816 102.32 4.0908C102.374 4.14344 102.405 4.2147 102.408 4.28985V11.8827H102.466C102.853 11.2334 103.41 10.7026 104.077 10.3475C104.832 9.96708 105.668 9.77841 106.513 9.79811C107.547 9.78566 108.566 10.0478 109.466 10.558C110.367 11.0689 111.1 11.8315 111.576 12.7526C112.115 13.8184 112.379 15.0029 112.344 16.1976C112.369 17.3914 112.106 18.5734 111.577 19.6435C111.095 20.5617 110.363 21.3235 109.467 21.84C108.566 22.3483 107.547 22.6095 106.513 22.597C105.667 22.604 104.831 22.4087 104.076 22.0274L104.077 22.0293ZM116.834 22.1828H114.169C114.094 22.1816 114.021 22.1512 113.968 22.0979C113.914 22.0446 113.883 21.9727 113.881 21.897V4.29179C113.884 4.21629 113.915 4.14466 113.968 4.09179C114.022 4.03892 114.095 4.00888 114.17 4.00792H116.835C116.91 4.00959 116.981 4.03979 117.034 4.09235C117.087 4.14492 117.119 4.21591 117.122 4.29082V21.896C117.123 21.9516 117.108 22.006 117.078 22.0526C117.048 22.0993 117.005 22.1359 116.954 22.1577C116.916 22.174 116.876 22.1819 116.835 22.1809V22.1828H116.834ZM123.108 12.9631C122.643 13.3345 122.325 13.8573 122.206 14.4403C122.197 14.4824 122.199 14.5259 122.21 14.5674C122.221 14.6089 122.241 14.6475 122.269 14.6802C122.296 14.713 122.33 14.739 122.37 14.7565C122.408 14.774 122.452 14.7824 122.494 14.7811H127.559C127.599 14.7813 127.64 14.7727 127.677 14.7561C127.715 14.7395 127.748 14.7152 127.775 14.6847C127.802 14.6543 127.823 14.6184 127.835 14.5794C127.848 14.5404 127.852 14.4993 127.847 14.4587C127.77 13.8928 127.489 13.3744 127.059 13.0007C126.504 12.5585 125.81 12.3297 125.103 12.3558C124.39 12.3365 123.689 12.5489 123.108 12.9621L123.107 12.9631H123.108ZM129.592 11.4868C130.628 12.602 131.146 14.1787 131.145 16.2178V16.5606C131.142 16.6358 131.111 16.7071 131.057 16.7597C131.003 16.8123 130.932 16.8423 130.857 16.8435H122.399C122.356 16.8444 122.315 16.8541 122.277 16.8722C122.239 16.8902 122.205 16.9162 122.178 16.9482C122.15 16.9804 122.13 17.018 122.118 17.0585C122.107 17.0991 122.104 17.1415 122.11 17.1834C122.22 17.8924 122.581 18.538 123.128 19.0014C123.799 19.5279 124.636 19.7961 125.488 19.7574C126.759 19.7397 127.976 19.2313 128.883 18.3381C128.913 18.3107 128.949 18.2902 128.987 18.2782C129.027 18.2661 129.067 18.2627 129.108 18.2682C129.148 18.2737 129.187 18.288 129.22 18.3101C129.255 18.3322 129.284 18.3616 129.305 18.396L130.59 20.2315C130.627 20.2901 130.643 20.3591 130.635 20.4279C130.629 20.4965 130.599 20.561 130.552 20.6109C129.914 21.1559 129.212 21.6202 128.461 21.9936C127.526 22.4115 126.511 22.6182 125.487 22.5989C124.288 22.6263 123.1 22.3524 122.034 21.8024C121.072 21.2962 120.279 20.5202 119.751 19.5691C119.192 18.5494 118.908 17.4014 118.926 16.2381C118.905 15.0729 119.176 13.9211 119.713 12.8878C120.217 11.9399 120.983 11.1579 121.919 10.6362C122.936 10.0801 124.08 9.79927 125.238 9.82128C127.118 9.79908 128.557 10.3678 129.592 11.4858V11.4868ZM64.173 5.9602C64.1785 6.34813 64.0691 6.72899 63.8587 7.05462C63.6482 7.38025 63.3462 7.63603 62.9908 7.78962C62.6354 7.94322 62.2424 7.98774 61.8618 7.91754C61.4811 7.84735 61.1297 7.6656 60.8521 7.39527C60.5745 7.12494 60.383 6.77817 60.302 6.3988C60.2209 6.01942 60.2539 5.62448 60.3968 5.2639C60.5396 4.90331 60.7859 4.59328 61.1046 4.37299C61.4232 4.15269 61.7998 4.03204 62.1868 4.02627H62.1964C62.7128 4.02387 63.2093 4.22498 63.5791 4.58621C63.9488 4.94745 64.1622 5.43987 64.173 5.9573V5.95923V5.9602Z" fill="#535862"/>
<path d="M16.122 0.343458L4.02007 5.36289C3.34727 5.64225 3.35405 6.60042 4.03144 6.86948L16.1839 11.7C17.2516 12.1245 18.4407 12.1245 19.5085 11.7L31.661 6.86948C32.3381 6.60042 32.3452 5.64225 31.6721 5.36307L19.5704 0.343458C18.4664 -0.114486 17.2261 -0.114486 16.122 0.343458Z" fill="#FCB400"/>
<path d="M18.9244 14.3377V26.4053C18.9244 26.979 19.5017 27.3723 20.034 27.1607L33.5756 21.8921C33.7266 21.8321 33.8562 21.728 33.9474 21.5933C34.0387 21.4586 34.0874 21.2995 34.0874 21.1367V9.06924C34.0874 8.49526 33.5101 8.10224 32.9778 8.31374L19.4362 13.5824C19.2852 13.6424 19.1557 13.7465 19.0644 13.8813C18.9732 14.016 18.9244 14.175 18.9244 14.3379" fill="#18BFFF"/>
<path d="M15.7623 14.9602L11.7435 16.9053L11.3354 17.103L2.85189 21.1775C2.31431 21.4375 1.62775 21.0447 1.62775 20.4459V9.11966C1.62775 8.90302 1.73857 8.71598 1.88718 8.57529C1.94814 8.51444 2.01731 8.46243 2.09267 8.42081C2.29523 8.29887 2.58438 8.26633 2.83024 8.3638L15.6947 13.4731C16.3487 13.7332 16.4 14.6517 15.7623 14.9604" fill="#F82B60"/>
<path d="M15.7622 14.9602L11.7434 16.9053L1.88715 8.57511C1.94813 8.51432 2.0173 8.46238 2.09264 8.42081C2.29519 8.29887 2.58435 8.26633 2.83021 8.3638L15.6948 13.4731C16.3486 13.7332 16.3999 14.6517 15.7622 14.9604" fill="black" fill-opacity="0.25"/>
</g>
<defs>
<clipPath id="clip0_1_2719">
<rect width="131" height="28" fill="white" transform="translate(0.875)"/>
</clipPath>
</defs>
</svg>
