<svg width="127" height="30" viewBox="0 0 127 30" fill="none" xmlns="http://www.w3.org/2000/svg">
<path d="M54.5536 10.9434C54.1234 10.3506 53.5282 9.8985 52.8428 9.64405C52.1391 9.36055 51.4511 9.2188 50.7789 9.2188C49.92 9.2188 49.1378 9.3763 48.435 9.6913C47.7445 9.99694 47.1223 10.4388 46.6056 10.9907C46.0967 11.5565 45.6991 12.2138 45.4337 12.9279C45.1623 13.7019 45.0275 14.5174 45.0352 15.3377C45.0352 16.2512 45.1677 17.0859 45.4337 17.8419C45.6789 18.5622 46.0609 19.2278 46.5585 19.802C47.06 20.3388 47.6668 20.7654 48.3408 21.055C49.0288 21.3542 49.8022 21.5038 50.662 21.5038C51.5532 21.5038 52.3423 21.3306 53.0303 20.9841C53.7174 20.6218 54.2728 20.1493 54.6949 19.5666L57.0632 21.244C56.3398 22.1641 55.4176 22.9073 54.3662 23.4175C53.3032 23.9215 52.0607 24.1735 50.6385 24.1735C49.341 24.1735 48.1455 23.9608 47.0512 23.5347C46.0106 23.1192 45.0624 22.5012 44.2609 21.7165C43.4729 20.9185 42.8516 19.9707 42.4332 18.9287C41.9955 17.8419 41.7766 16.6449 41.7766 15.3377C41.7766 13.9989 42.0033 12.7941 42.4567 11.7231C42.9259 10.6363 43.5589 9.71492 44.3559 8.95804C45.1852 8.19224 46.1572 7.59838 47.216 7.21066C48.3103 6.8012 49.4988 6.59645 50.7797 6.59645C51.3116 6.59645 51.8662 6.65157 52.4452 6.76182C53.0233 6.85632 53.5788 7.01382 54.1098 7.23429C54.6417 7.43904 55.1413 7.69804 55.6096 8.01304C56.0787 8.32804 56.4772 8.70692 56.8059 9.14792L54.5536 10.9434ZM58.8045 5.8877H61.6183V23.7482H58.8045V5.8877ZM72.9557 16.9442C72.9557 16.5819 72.9017 16.2354 72.7918 15.9047C72.7023 15.5816 72.5421 15.2827 72.3227 15.0297C72.0913 14.7694 71.8022 14.5673 71.4786 14.4399C71.1507 14.2824 70.7601 14.2037 70.3067 14.2037C69.4626 14.2037 68.7432 14.4636 68.1494 14.9824C67.5713 15.4873 67.2513 16.1409 67.1885 16.9442H72.9557ZM75.7696 18.2199V18.598C75.7696 18.724 75.7617 18.85 75.746 18.976H67.1885C67.2199 19.3855 67.321 19.7635 67.4937 20.11C67.6803 20.4407 67.9227 20.7312 68.22 20.9841C68.5165 21.2203 68.8531 21.4093 69.228 21.5511C69.603 21.6928 69.9936 21.7637 70.4009 21.7637C71.1037 21.7637 71.6975 21.6377 72.1823 21.3857C72.6607 21.1234 73.0705 20.751 73.3778 20.299L75.2534 21.811C74.1442 23.323 72.5337 24.079 70.4235 24.079C69.5489 24.079 68.7432 23.9451 68.0082 23.6765C67.2988 23.4083 66.6467 23.0074 66.0863 22.4952C65.5433 21.9746 65.1123 21.3477 64.8202 20.6533C64.5238 19.9131 64.3755 19.0783 64.3755 18.1491C64.3755 17.2356 64.5238 16.4078 64.8202 15.6684C65.1333 14.9124 65.5553 14.2746 66.0863 13.7548C66.6192 13.2184 67.2581 12.7999 67.9619 12.5263C68.7147 12.2236 69.5192 12.0711 70.3302 12.0774C71.1115 12.0774 71.83 12.2113 72.4875 12.4791C73.1482 12.7234 73.7425 13.1199 74.2227 13.6367C74.7066 14.1407 75.0816 14.7786 75.3475 15.5503C75.6292 16.3063 75.7696 17.1953 75.7696 18.2191V18.2199ZM85.3438 22.3062H85.2741C84.9924 22.8111 84.539 23.2285 83.9138 23.5592C83.2886 23.8742 82.5771 24.0317 81.7801 24.0317C81.3267 24.0317 80.8506 23.9687 80.3501 23.8427C79.8676 23.7334 79.4075 23.5416 78.9898 23.2757C78.5774 22.9858 78.2267 22.6164 77.9582 22.189C77.6923 21.7322 77.5597 21.1731 77.5597 20.5116C77.5597 19.6611 77.7943 18.9838 78.2634 18.4798C78.7482 17.9758 79.3656 17.5899 80.1155 17.3222C80.8654 17.0544 81.6938 16.8812 82.6006 16.8024C83.4963 16.7093 84.3962 16.662 85.2968 16.6607V16.3772C85.2968 15.6684 85.0395 15.1487 84.5233 14.8179C84.0228 14.4714 83.4211 14.2982 82.7183 14.2982C82.1271 14.2975 81.5429 14.4265 81.0067 14.6762C80.4591 14.9282 80.0056 15.2353 79.6464 15.5976L78.1928 13.8729C78.8282 13.2775 79.5784 12.8189 80.3971 12.5254C81.217 12.2308 82.0811 12.0793 82.952 12.0774C83.953 12.0774 84.7736 12.2192 85.4145 12.5027C86.0711 12.7862 86.5864 13.1563 86.9614 13.6131C87.3363 14.0698 87.5944 14.5817 87.7357 15.1487C87.8917 15.7157 87.9702 16.2827 87.9702 16.8497V23.7482H85.343V22.3062H85.3438ZM85.2968 18.5743H84.6637C84.2103 18.5743 83.7342 18.5979 83.2337 18.6443C82.7633 18.6705 82.2984 18.7582 81.8507 18.9051C81.4287 19.0311 81.0764 19.2201 80.7956 19.4721C80.514 19.7083 80.3736 20.0391 80.3736 20.4643C80.3736 20.7321 80.4285 20.9605 80.5375 21.1495C80.6622 21.3227 80.8192 21.4645 81.0067 21.5747C81.1941 21.685 81.4051 21.7637 81.6397 21.811C81.8743 21.8582 82.1088 21.881 82.3425 21.881C83.3121 21.881 84.0463 21.622 84.5469 21.1022C85.0474 20.5825 85.2968 19.8737 85.2968 18.976V18.5735V18.5743ZM91.248 12.4082H93.9441V14.2982H93.9912C94.2851 13.6592 94.7376 13.1063 95.3044 12.6917C95.8668 12.2822 96.5234 12.0774 97.2733 12.0774C97.3832 12.0774 97.5 12.0853 97.6247 12.1011C97.7503 12.1011 97.8601 12.1168 97.9534 12.1483V14.7471C97.7913 14.7047 97.6264 14.6731 97.4608 14.6526C97.3361 14.6369 97.2114 14.629 97.0858 14.6289C96.4449 14.6289 95.9287 14.7471 95.5381 14.9833C95.1736 15.1948 94.8614 15.4854 94.6242 15.8338C94.415 16.142 94.2641 16.486 94.1787 16.8488C94.1002 17.1962 94.0609 17.4718 94.0609 17.6766V23.7482H91.248V12.4082ZM102.648 5.8877V13.8493H102.719C102.86 13.6603 103.04 13.4634 103.259 13.2587C103.477 13.0539 103.735 12.8649 104.032 12.6917C104.373 12.5069 104.736 12.3641 105.111 12.2664C105.56 12.1345 106.025 12.0708 106.494 12.0774C107.291 12.0774 108.026 12.2349 108.698 12.5499C109.369 12.8492 109.948 13.2666 110.433 13.8012C110.927 14.3521 111.309 14.994 111.558 15.6912C111.828 16.4412 111.963 17.2335 111.956 18.0309C111.962 18.8358 111.827 19.6353 111.558 20.3935C111.319 21.0978 110.945 21.7481 110.456 22.3071C109.972 22.8541 109.381 23.2963 108.721 23.6065C108.049 23.9215 107.283 24.079 106.423 24.079C105.643 24.0827 104.873 23.9048 104.173 23.5592C103.498 23.2248 102.935 22.6991 102.555 22.0472H102.508V23.7482H99.8351V5.8877H102.649H102.648ZM109.096 18.0309C109.096 17.5899 109.027 17.1559 108.885 16.7316C108.767 16.304 108.568 15.9029 108.299 15.5503C108.03 15.2011 107.686 14.9183 107.291 14.7234C106.884 14.5029 106.408 14.3927 105.86 14.3927C105.345 14.3927 104.884 14.5029 104.478 14.7234C104.071 14.9439 103.719 15.2274 103.422 15.5739C103.137 15.9269 102.915 16.3265 102.766 16.7552C102.627 17.1825 102.557 17.6289 102.555 18.0782C102.555 18.5192 102.625 18.9602 102.766 19.4012C102.923 19.8265 103.141 20.2123 103.422 20.5588C103.719 20.9053 104.071 21.1888 104.478 21.4093C104.884 21.6141 105.345 21.7156 105.86 21.7156C106.408 21.7156 106.884 21.6062 107.291 21.3857C107.683 21.1772 108.027 20.8873 108.299 20.5352C108.564 20.1887 108.76 19.795 108.885 19.354C109.024 18.9267 109.095 18.4803 109.096 18.0309ZM114.718 12.4082H117.531V23.7482H114.718V12.4082ZM114.319 8.55729C114.319 8.10054 114.483 7.70679 114.81 7.37604C115.155 7.02957 115.585 6.85632 116.101 6.85632C116.615 6.85632 117.046 7.0217 117.39 7.35241C117.749 7.66742 117.929 8.06904 117.929 8.55729C117.929 9.04554 117.749 9.45505 117.39 9.7858C117.046 10.1008 116.616 10.2583 116.1 10.2583C115.585 10.2583 115.155 10.092 114.81 9.76217C114.653 9.6038 114.529 9.41576 114.445 9.209C114.36 9.00223 114.318 8.78077 114.319 8.55729ZM119.326 14.6762V12.4082H121.297V9.12429H124.063V12.4082H126.875V14.6762H124.062V19.9437C124.062 20.4486 124.148 20.866 124.32 21.1967C124.508 21.5275 124.913 21.6928 125.539 21.6928C125.727 21.6928 125.93 21.6771 126.149 21.6456C126.367 21.5983 126.563 21.5353 126.735 21.4566L126.829 23.6773C126.54 23.7811 126.242 23.8524 125.938 23.89C125.594 23.953 125.266 23.9845 124.952 23.9845C124.202 23.9845 123.593 23.8821 123.124 23.6773C122.656 23.4568 122.28 23.1655 121.999 22.8023C121.73 22.4182 121.539 21.9852 121.436 21.5275C121.34 21.0134 121.294 20.4913 121.296 19.9682V14.6762H119.325H119.326Z" fill="#535862"/>
<g filter="url(#filter0_f_1_2720)">
<path d="M21.2417 29H8.29636L7.76794 28.9958C5.58208 28.9601 4.71264 28.6929 3.8366 28.2208C2.89319 27.7124 2.15279 26.9664 1.64824 26.0158L1.54374 25.8116C1.12349 24.9562 0.893128 24.0121 0.876029 21.7944L0.875 8.47804C0.875 5.87773 1.14369 4.93481 1.64824 3.9842C2.15279 3.03359 2.89319 2.28753 3.8366 1.77914L4.03925 1.67385C4.88814 1.25038 5.82504 1.01826 8.02613 1.00103L21.2417 1C23.8222 1 24.758 1.27074 25.7014 1.77914C26.6448 2.28753 27.3852 3.03359 27.8898 3.9842L27.9942 4.18839C28.4145 5.04376 28.6449 5.9878 28.662 8.20565L28.663 21.522L28.6589 22.0544C28.6234 24.257 28.3583 25.1331 27.8898 26.0158C27.3852 26.9664 26.6448 27.7124 25.7014 28.2208L25.4987 28.3262C24.6159 28.7666 23.6378 29 21.2417 29Z" fill="#C4D3E0" fill-opacity="0.2"/>
</g>
<path d="M28.6627 15V21.522C28.6627 24.1223 28.3939 25.0652 27.8894 26.0158C27.3849 26.9664 26.6445 27.7125 25.701 28.2209C24.7576 28.7292 23.8218 29 21.2413 29H14.7687V15H28.6627Z" fill="url(#paint0_linear_1_2720)"/>
<path d="M14.7687 1H21.2413C23.8218 1 24.7576 1.27074 25.701 1.77914C26.6445 2.28753 27.3849 3.03358 27.8894 3.9842C28.3939 4.93481 28.6627 5.87773 28.6627 8.47795V15H14.7687V1Z" fill="url(#paint1_linear_1_2720)"/>
<path d="M8.29636 1H14.769V29H8.29636C5.71581 29 4.78002 28.7292 3.8366 28.2208C2.89319 27.7124 2.15279 26.9664 1.64824 26.0158C1.14369 25.0651 0.875 24.1222 0.875 21.522V8.47804C0.875 5.87773 1.14369 4.93481 1.64824 3.9842C2.15279 3.03359 2.89319 2.28753 3.8366 1.77914C4.78002 1.27074 5.71581 1 8.29636 1Z" fill="url(#paint2_linear_1_2720)"/>
<defs>
<filter id="filter0_f_1_2720" x="0.116114" y="0.241114" width="29.3058" height="29.5178" filterUnits="userSpaceOnUse" color-interpolation-filters="sRGB">
<feFlood flood-opacity="0" result="BackgroundImageFix"/>
<feBlend mode="normal" in="SourceGraphic" in2="BackgroundImageFix" result="shape"/>
<feGaussianBlur stdDeviation="0.379443" result="effect1_foregroundBlur_1_2720"/>
</filter>
<linearGradient id="paint0_linear_1_2720" x1="21.7157" y1="15" x2="28.7475" y2="28.9572" gradientUnits="userSpaceOnUse">
<stop stop-color="#DEF2FE"/>
<stop offset="1" stop-color="#DBF1FE"/>
</linearGradient>
<linearGradient id="paint1_linear_1_2720" x1="14.7687" y1="1" x2="21.8006" y2="14.9572" gradientUnits="userSpaceOnUse">
<stop stop-color="#57BCFD"/>
<stop offset="1" stop-color="#51B5FD"/>
</linearGradient>
<linearGradient id="paint2_linear_1_2720" x1="6.08525" y1="1" x2="18.0393" y2="24.7273" gradientUnits="userSpaceOnUse">
<stop stop-color="#1CA7FD"/>
<stop offset="1" stop-color="#148CFC"/>
</linearGradient>
</defs>
</svg>
