<svg width="152" height="28" viewBox="0 0 152 28" fill="none" xmlns="http://www.w3.org/2000/svg">
<g clip-path="url(#clip0_1_2721)">
<path fill-rule="evenodd" clip-rule="evenodd" d="M12.5389 19.9925L5.84639 13.2713C4.70919 12.1291 2.86545 12.1291 1.72789 13.2713C0.590702 14.4133 0.590702 16.265 1.72789 17.4074L10.4796 26.1968C11.6168 27.3388 13.461 27.3388 14.5981 26.1968L22.8355 17.9237L18.7174 13.7875L12.5389 19.9925Z" fill="#16B8A2"/>
<path fill-rule="evenodd" clip-rule="evenodd" d="M37.7646 7.06765L24.8955 19.9921L12.0249 7.06619C10.8874 5.92374 9.04361 5.92374 7.90642 7.06619C6.76923 8.20827 6.76923 10.0599 7.90642 11.2024L22.8362 26.1964C23.9734 27.3385 25.8172 27.3385 26.9547 26.1964L41.8831 11.2039C43.0202 10.0614 43.0202 8.20973 41.8831 7.06765C40.7455 5.92556 38.9017 5.92556 37.7646 7.06765Z" fill="#FFB41F"/>
<path fill-rule="evenodd" clip-rule="evenodd" d="M48.061 17.4086L39.3107 26.1964C38.1736 27.3386 36.3298 27.3386 35.1925 26.1964L14.0843 4.99744C12.9471 3.85536 12.9471 2.00368 14.0843 0.861596C15.2218 -0.280851 17.0656 -0.280851 18.2027 0.861596L37.2515 19.9921L43.9425 13.2724C45.08 12.1303 46.9238 12.1303 48.061 13.2724C49.1981 14.4149 49.1981 16.2665 48.061 17.4086Z" fill="#F56358"/>
<path fill-rule="evenodd" clip-rule="evenodd" d="M35.7048 0.863153C34.5676 -0.278929 32.7239 -0.278929 31.5863 0.863153L18.7173 13.7875L22.8355 17.9237L35.7048 4.99936C36.8421 3.85691 36.8421 2.00523 35.7048 0.863153Z" fill="#16B8A2"/>
<path fill-rule="evenodd" clip-rule="evenodd" d="M63.9899 2.88293H60.4088V24.0097H73.5302V20.8192H63.9899V2.88293ZM81.2808 9.23534C83.4582 9.23534 84.9193 10.1264 85.7215 11.2187L85.8933 9.52277H88.9875V24.0097H85.8933L85.7215 22.3139C84.9193 23.4062 83.4582 24.2972 81.2808 24.2972C77.3558 24.2972 74.6915 21.1066 74.6915 16.7663C74.6915 12.3972 77.3558 9.23534 81.2808 9.23534ZM82.0257 12.2822C79.791 12.2822 78.1866 14.0357 78.1866 16.7663C78.1866 19.497 79.791 21.2504 82.0257 21.2504C83.7446 21.2504 84.7761 20.3305 85.5496 19.0945V14.438C84.7761 13.2021 83.7446 12.2822 82.0257 12.2822ZM97.6549 4.66504H94.217V9.52277H91.4952V12.4548H94.217V18.8934C94.217 22.4001 96.3083 24.2972 99.6031 24.2972C101.035 24.2972 102.096 23.8948 102.812 23.4349L101.895 20.733C101.465 20.9917 100.835 21.1928 99.9182 21.1928C98.5716 21.1928 97.6549 20.3305 97.6549 18.8646V12.4548H102.01V9.52277H97.6549V4.66504ZM109.502 4.66504H106.064V9.52277H103.343V12.4548H106.064V18.8934C106.064 22.4001 108.156 24.2972 111.45 24.2972C112.883 24.2972 113.943 23.8948 114.659 23.4349L113.742 20.733C113.313 20.9917 112.682 21.1928 111.766 21.1928C110.419 21.1928 109.502 20.3305 109.502 18.8646V12.4548H113.857V9.52277H109.502V4.66504ZM120.404 9.52277H116.966V24.0097H120.404V9.52277ZM118.685 2.76794C117.482 2.76794 116.565 3.659 116.565 4.89499C116.565 6.13099 117.482 7.02204 118.685 7.02204C119.917 7.02204 120.834 6.13099 120.834 4.89499C120.834 3.659 119.917 2.76794 118.685 2.76794ZM130.791 9.23534C126.35 9.23534 123.399 12.3972 123.399 16.7663C123.399 21.1066 126.379 24.2972 130.819 24.2972C133.426 24.2972 135.403 23.1187 136.692 21.1066L134.229 19.1808C133.541 20.3305 132.424 21.2791 130.848 21.2791C128.298 21.2791 126.894 19.2958 126.894 16.7663C126.894 14.208 128.241 12.2535 130.819 12.2535C132.424 12.2535 133.483 13.1733 134.142 14.3231L136.635 12.426C135.345 10.4138 133.426 9.23534 130.791 9.23534ZM145.102 9.23534C149.543 9.23534 151.72 12.5697 151.72 16.6226V17.8298H141.521C141.607 20.1293 142.982 21.3941 145.388 21.3941C147.078 21.3941 148.311 20.6467 148.969 19.727L151.348 21.6815C149.914 23.4062 148.024 24.2972 145.36 24.2972C140.891 24.2972 138.026 21.1354 138.026 16.795C138.026 12.426 140.948 9.23534 145.102 9.23534ZM145.045 11.9948C143.011 11.9948 141.635 13.3458 141.521 15.3579H148.34C148.253 13.3745 147.108 11.9948 145.045 11.9948Z" fill="#535862"/>
</g>
<defs>
<clipPath id="clip0_1_2721">
<rect width="151" height="28" fill="white" transform="translate(0.875)"/>
</clipPath>
</defs>
</svg>
