<svg width="122" height="28" viewBox="0 0 122 28" fill="none" xmlns="http://www.w3.org/2000/svg">
<g clip-path="url(#clip0_1_2722)">
<path fill-rule="evenodd" clip-rule="evenodd" d="M95.0203 19.3086C98.1388 19.3086 100.675 16.8232 100.675 13.7684C100.675 10.7135 98.1388 8.22819 95.0203 8.22819C91.9023 8.22819 89.3652 10.7135 89.3652 13.7684C89.3652 16.8232 91.9023 19.3086 95.0203 19.3086ZM100.675 0H100.829H103.355V21.952H100.675V19.7602C99.1292 21.1641 97.1355 21.9332 95.0203 21.9332C90.4251 21.9332 86.6864 18.2704 86.6864 13.7684C86.6864 9.2661 90.4251 5.60347 95.0203 5.60347C97.1355 5.60347 99.1292 6.37246 100.675 7.77655V0ZM39.4593 19.2119C42.5774 19.2119 45.1143 16.7266 45.1143 13.6717C45.1143 10.6169 42.5774 8.13159 39.4593 8.13159C36.3409 8.13159 33.8041 10.6169 33.8041 13.6717C33.8041 16.7266 36.3409 19.2119 39.4593 19.2119ZM33.8041 7.68012C35.3503 6.27603 37.3445 5.50692 39.4593 5.50692C44.0546 5.50692 47.7934 9.16966 47.7934 13.6717C47.7934 18.1738 44.0546 21.8365 39.4593 21.8365C37.3445 21.8365 35.3503 21.0676 33.8041 19.6633V27.44H31.125V5.488H33.8041V7.68012ZM52.9052 12.3969C53.5082 9.91586 55.7548 8.13439 58.3175 8.13439C60.8467 8.13439 62.9654 9.87784 63.53 12.3969H52.9052ZM58.3175 5.488C53.7909 5.488 50.1084 9.18103 50.1084 13.72C50.1084 18.2591 53.7909 21.952 58.3175 21.952C60.8523 21.952 63.1788 21.0003 64.7014 19.3411L65.4924 18.4785L65.5943 18.3673L65.4834 18.2646L63.7636 16.6783L63.6527 16.5758L63.5502 16.6871L62.7592 17.5497C61.7503 18.6492 60.0899 19.3058 58.3175 19.3058C55.7548 19.3058 53.5083 17.5243 52.9052 15.0431H66.3136V13.72C66.3136 9.10392 62.8012 5.488 58.3175 5.488ZM119.196 13.7201C119.196 16.8 116.659 19.3057 113.541 19.3057C110.423 19.3057 107.885 16.8 107.885 13.7201C107.885 10.64 110.423 8.13428 113.541 8.13428C116.659 8.13428 119.196 10.64 119.196 13.7201ZM113.541 5.488C108.945 5.488 105.207 9.18086 105.207 13.7201C105.207 18.2591 108.945 21.952 113.541 21.952C118.136 21.952 121.875 18.2591 121.875 13.7201C121.875 9.18086 118.136 5.488 113.541 5.488ZM76.2681 5.488C74.4066 5.488 72.633 6.19668 71.2371 7.49101V5.488H68.6288V21.952H71.2371V13.5502C71.2371 10.5526 73.494 8.11373 76.2681 8.11373C79.0427 8.11373 81.3002 10.5526 81.3002 13.5502V21.952H83.9079V13.5502C83.9079 9.1047 80.4807 5.488 76.2681 5.488Z" fill="#535862"/>
<path fill-rule="evenodd" clip-rule="evenodd" d="M0.875 15.6799H13.4791V28L26.0833 15.6799V3.35999H13.4791L0.875 15.6799Z" fill="#FF4876"/>
</g>
<defs>
<clipPath id="clip0_1_2722">
<rect width="121" height="28" fill="white" transform="translate(0.875)"/>
</clipPath>
</defs>
</svg>
