<svg width="117" height="28" viewBox="0 0 117 28" fill="none" xmlns="http://www.w3.org/2000/svg">
<g clip-path="url(#clip0_1_2723)">
<path d="M0.944702 20.5886L5.09179 17.436C7.29509 20.2896 9.63599 21.6049 12.2416 21.6049C14.8334 21.6049 17.1081 20.3052 19.2121 17.4741L23.4184 20.5506C20.3826 24.6331 16.6099 26.7901 12.2416 26.7901C7.88728 26.7901 4.0781 24.6469 0.944702 20.5886Z" fill="url(#paint0_linear_1_2723)"/>
<path d="M12.2277 6.88586L4.84616 13.198L1.43408 9.27104L12.2433 0.0275879L22.9672 9.27796L19.5395 13.191L12.2277 6.88586Z" fill="url(#paint1_linear_1_2723)"/>
<path d="M39.3222 22.8961C36.8019 22.8961 34.7013 22.0854 32.9979 20.4642C31.2945 18.8205 30.455 16.7136 30.455 14.1417C30.455 11.5491 31.3171 9.41801 33.0205 7.75011C34.7483 6.05974 36.8489 5.22666 39.3465 5.22666C42.4277 5.22666 45.157 6.54542 46.7455 8.6074L43.9656 11.5025C42.635 10.0886 41.1876 9.37135 39.6252 9.37135C38.2945 9.37135 37.1972 9.81036 36.2863 10.7143C35.3998 11.6183 34.9574 12.7538 34.9574 14.1192C34.9574 15.4397 35.3998 16.5511 36.2863 17.4551C37.1972 18.3348 38.2945 18.7738 39.6008 18.7738C41.3043 18.7738 42.7987 18.0324 44.0353 16.5736L46.9301 19.3304C46.1359 20.3726 45.0629 21.2299 43.7323 21.9005C42.4016 22.5728 40.9315 22.8961 39.3204 22.8961H39.3222ZM51.8279 4.97085V22.642H47.7208V4.97085H51.8279ZM55.7207 8.72147C54.3447 8.72147 53.3414 7.72592 53.3414 6.36048C53.3414 5.03999 54.3917 4.04443 55.7207 4.04443C57.0514 4.04443 58.079 5.03999 58.079 6.36048C58.079 7.72592 57.0514 8.7232 55.7207 8.7232V8.72147ZM57.7986 9.85703V22.642H53.6671V9.85703H57.7986ZM65.7061 22.9203C63.6752 22.9203 62.0414 22.2946 60.7595 21.0432C59.4985 19.7936 58.868 18.1948 58.868 16.2262C58.868 14.2575 59.4985 12.6605 60.7822 11.4091C62.0658 10.1578 63.7222 9.53382 65.7757 9.53382C68.4598 9.53382 70.8181 10.8301 71.9136 13.262L68.6235 14.9765C67.9703 13.8876 67.0594 13.3311 65.8698 13.3311C65.0059 13.3311 64.3057 13.6094 63.7449 14.1659C63.4787 14.4391 63.2697 14.7617 63.1295 15.1152C62.9893 15.4688 62.9208 15.8463 62.928 16.2262C62.928 17.9165 64.1646 19.1679 65.8228 19.1679C67.0124 19.1679 68.1097 18.5198 68.5765 17.5242L71.8684 19.4686C70.7467 21.5998 68.4371 22.9203 65.7061 22.9203ZM86.1942 22.642H81.2912L77.4855 17.5691L76.8793 18.1257V22.642H72.7741V4.97085H76.8811V13.5627L80.7547 9.85703H85.7727L80.2426 14.999L86.1942 22.642ZM86.4694 15.9946V5.52567H90.8568V15.9254C90.8568 17.8474 91.9768 18.7738 93.5879 18.7738C95.1746 18.7738 96.2945 17.8007 96.2945 15.9254V5.52567H100.706V15.9946C100.706 21.0432 97.1811 22.9427 93.5879 22.9427C90.0173 22.9427 86.4694 21.0432 86.4694 15.9946ZM110.457 9.53382C112.301 9.53382 113.796 10.182 114.985 11.4783C116.175 12.7521 116.758 14.3509 116.758 16.2262C116.758 18.1032 116.152 19.7003 114.963 21.0207C113.771 22.317 112.278 22.9669 110.481 22.9669C109.056 22.9669 107.82 22.5037 106.816 21.5773V27.8998H102.685V9.85703H106.747V11.0392C107.75 10.042 108.987 9.53382 110.457 9.53382ZM112.557 16.2728C112.557 14.6049 111.345 13.3311 109.664 13.3311C107.983 13.3311 106.747 14.6049 106.747 16.2728C106.747 17.0834 107.025 17.7783 107.564 18.3573C108.123 18.9363 108.823 19.2146 109.664 19.2146C110.504 19.2146 111.204 18.9363 111.74 18.3573C112.276 17.7942 112.569 17.0468 112.559 16.2728H112.557Z" fill="#535862"/>
</g>
<defs>
<linearGradient id="paint0_linear_1_2723" x1="0.944702" y1="23.7977" x2="23.4184" y2="23.7977" gradientUnits="userSpaceOnUse">
<stop stop-color="#8930FD"/>
<stop offset="1" stop-color="#49CCF9"/>
</linearGradient>
<linearGradient id="paint1_linear_1_2723" x1="1.43408" y1="8.98475" x2="22.9672" y2="8.98475" gradientUnits="userSpaceOnUse">
<stop stop-color="#FF02F0"/>
<stop offset="1" stop-color="#FFC800"/>
</linearGradient>
<clipPath id="clip0_1_2723">
<rect width="116" height="28" fill="white" transform="translate(0.875)"/>
</clipPath>
</defs>
</svg>
