<svg width="124" height="28" viewBox="0 0 124 28" fill="none" xmlns="http://www.w3.org/2000/svg">
<g clip-path="url(#clip0_1_2724)">
<path fill-rule="evenodd" clip-rule="evenodd" d="M74.5035 12.772V19.6492H75.8565H77.2095V18.8509C77.2095 18.4119 77.2509 18.056 77.3018 18.0602C77.3525 18.0643 77.5618 18.2991 77.767 18.5821C78.336 19.3666 79.1645 19.7656 80.2319 19.7691C81.3957 19.773 82.1212 19.5054 82.9182 18.778C84.0122 17.7798 84.4665 16.5095 84.4665 14.4496C84.4665 12.6504 84.0488 11.4046 83.102 10.379C82.2469 9.45286 80.5945 8.9889 79.3702 9.33116C78.7603 9.5015 77.9173 10.1579 77.563 10.7382C77.3343 11.1127 77.3333 11.1045 77.333 8.50442L77.3325 5.89478H75.918H74.5035V12.772ZM54.8518 9.39281C53.0528 9.89914 52.2058 10.8594 52.1881 12.413C52.1687 14.1251 53.1798 14.9463 56.0282 15.5324C57.6602 15.8683 58.1052 16.0729 58.223 16.5417C58.4041 17.2617 57.6722 17.8074 56.5268 17.8066C55.7588 17.8061 55.1635 17.5009 54.8472 16.9456C54.659 16.6157 54.5785 16.5805 54.0112 16.5797C53.6661 16.5794 53.0442 16.6144 52.6295 16.6577C51.8924 16.7346 51.8772 16.7437 51.9525 17.0568C52.1463 17.8644 52.7827 18.6865 53.5935 19.1768C54.8804 19.9553 57.5012 20.0387 59.0594 19.3507C60.4808 18.7231 61.1536 17.7134 61.0751 16.3255C61.0407 15.7175 60.9536 15.3984 60.7347 15.0795C60.1622 14.2453 59.4378 13.9438 56.5264 13.328C55.0334 13.0122 54.5726 12.3895 55.2971 11.6663C55.6897 11.2742 56.33 11.1078 56.9785 11.2293C57.4619 11.3198 58.2675 11.9576 58.2675 12.2498C58.2675 12.4093 58.3979 12.4268 59.0978 12.3608C59.5544 12.3177 60.1357 12.2821 60.3893 12.2816C60.7706 12.2809 60.8505 12.2375 60.8505 12.0312C60.8505 11.2123 59.9492 10.1282 58.8643 9.64211C58.2247 9.3556 57.8998 9.29481 56.8026 9.25613C55.8986 9.22432 55.3018 9.2662 54.8518 9.39281ZM89.6355 9.40742C88.3054 9.7643 87.1799 10.7157 86.6053 11.9688C85.9329 13.4351 85.9361 15.6768 86.6126 17.1521C87.4978 19.0827 89.5927 20.0773 92.1095 19.7617C93.9324 19.5332 95.249 18.5753 95.7515 17.1121L95.8849 16.724L94.6079 16.6371L93.3309 16.5503L93.0045 16.9375C92.5452 17.4825 92.0866 17.6843 91.3071 17.6843C90.5312 17.6843 90.0628 17.5347 89.6471 17.1541C89.2817 16.8198 88.9007 16.0128 88.8972 15.5658L88.8945 15.2281H92.4H95.9055V14.3554C95.9055 12.791 95.4445 11.4939 94.5683 10.5923C93.4047 9.39527 91.4399 8.92332 89.6355 9.40742ZM102.182 9.40497C101.592 9.66041 101.343 9.90983 100.966 10.6228L100.641 11.2369L100.605 10.2851L100.569 9.33337H99.2214H97.8735V14.4913V19.6492H99.288H100.703V16.444C100.703 12.8685 100.74 12.6683 101.528 12.0683C102.01 11.7015 103.077 11.5466 103.514 11.7801C103.659 11.8575 103.778 11.8989 103.778 11.8719C103.778 11.845 103.967 11.3135 104.199 10.691L104.621 9.55897L104.203 9.38471C103.665 9.16021 102.726 9.16967 102.182 9.40497ZM110.358 9.3825C109.856 9.60343 109.321 10.1581 109.065 10.7226C108.868 11.1575 108.848 11.1706 108.777 10.9068C108.735 10.7506 108.7 10.3328 108.699 9.97811L108.698 9.33337H107.345H105.992V14.4913V19.6492H107.406H108.821V16.495C108.821 13.5436 108.837 13.3065 109.078 12.8091C109.255 12.4453 109.51 12.1754 109.887 11.9551C110.374 11.6699 110.526 11.641 111.205 11.7044L111.972 11.7759L112.364 10.6933C112.58 10.098 112.757 9.58144 112.757 9.54546C112.757 9.5096 112.582 9.41958 112.369 9.34541C111.848 9.1639 110.811 9.18306 110.358 9.3825ZM40.5068 10.7764C40.4653 11.5701 40.4748 13.3547 40.528 14.7424C40.621 17.1651 40.6387 17.2937 40.9723 17.9744C41.5322 19.1167 42.6465 19.7731 44.0232 19.7712C45.1946 19.7698 46.3626 19.1611 46.8588 18.2936C47.0113 18.027 47.1774 17.8085 47.2283 17.808C47.279 17.8074 47.3205 18.2215 47.3205 18.7281V19.6492H48.6735H50.0265V14.4913V9.33337H48.612H47.1975L47.1946 12.3114C47.1914 15.411 47.1232 16.0451 46.7368 16.5619C46.2942 17.1538 45.8809 17.3685 45.1835 17.3685C44.4303 17.3685 43.986 17.1327 43.6251 16.5417C43.4027 16.1775 43.3853 15.9026 43.385 12.7413L43.3845 9.33337H41.9836H40.5826L40.5068 10.7764ZM92.0099 11.4658C92.2308 11.5579 92.559 11.8083 92.7393 12.0222C93.0716 12.4167 93.3663 13.2158 93.249 13.4052C93.2138 13.4621 92.2123 13.5088 91.0237 13.5088H88.8623L88.9339 13.0676C89.1423 11.7868 90.76 10.9444 92.0099 11.4658ZM80.6262 11.8686C81.1618 12.2764 81.5025 13.0359 81.5952 14.0282C81.7844 16.0491 80.8548 17.5614 79.4235 17.5614C77.9923 17.5614 77.0627 16.0491 77.2516 14.0282C77.3729 12.7311 77.9365 11.8031 78.7616 11.5418C79.3254 11.3632 80.1532 11.5084 80.6262 11.8686Z" fill="#535862"/>
<path d="M123.827 9.33337H122.31H120.794L119.712 13.1404C119.117 15.2343 118.595 16.9474 118.553 16.9474C118.511 16.9474 117.999 15.248 117.415 13.1711L116.355 9.39478L114.863 9.36027C114.043 9.34136 113.372 9.34136 113.372 9.36027C113.372 9.3793 114.202 11.7697 115.217 14.6725C117.265 20.5299 117.237 20.3788 116.412 21.0713C116.067 21.361 115.957 21.3881 115.387 21.3213L114.748 21.2463L114.483 22.1364C114.337 22.6259 114.191 23.1187 114.159 23.2314C114.111 23.3956 114.239 23.4656 114.799 23.5816C116.69 23.9737 118.617 23.143 119.409 21.5942C119.55 21.3166 120.543 18.5965 121.614 15.5493C122.685 12.502 123.617 9.87065 123.686 9.7018L123.827 9.33337Z" fill="#535862"/>
<path fill-rule="evenodd" clip-rule="evenodd" d="M66.1425 9.33329C64.8123 9.69017 63.6869 10.6416 63.1122 11.8947C62.4399 13.361 62.4431 15.6027 63.1196 17.078C64.0047 19.0085 66.0997 20.0031 68.6165 19.6875C70.4393 19.4591 71.7559 18.5012 72.2585 17.038L72.3918 16.6499L71.1149 16.5629L69.8379 16.4761L69.5114 16.8633C69.0522 17.4083 68.5936 17.6101 67.814 17.6101C67.0381 17.6101 66.5698 17.4605 66.154 17.08C65.7887 16.7457 65.4077 15.9387 65.4042 15.4917L65.4015 15.154H68.907H72.4125V14.2813C72.4125 12.7169 71.9515 11.4198 71.0753 10.5181C69.9117 9.32113 67.9469 8.84918 66.1425 9.33329ZM69.2462 11.9481C69.0659 11.7342 68.7378 11.4838 68.5169 11.3917C67.2669 10.8702 65.6492 11.7127 65.4409 12.9934L65.3693 13.4347H67.5306C68.7193 13.4347 69.7208 13.388 69.756 13.331C69.8733 13.1417 69.5786 12.3426 69.2462 11.9481Z" fill="#535862"/>
<path d="M0.875 0H14.897V28C7.15287 28 0.875 21.732 0.875 14V0Z" fill="#FF2F5B"/>
<path d="M28.919 14H14.897V28C22.6411 28 28.919 21.732 28.919 14Z" fill="#4E4AFF"/>
<path d="M21.908 14C25.78 14 28.919 10.866 28.919 7C28.919 3.13401 25.78 0 21.908 0C18.0359 0 14.897 3.13401 14.897 7C14.897 10.866 18.0359 14 21.908 14Z" fill="#FFBB25"/>
</g>
<defs>
<clipPath id="clip0_1_2724">
<rect width="123" height="28" fill="white" transform="translate(0.875)"/>
</clipPath>
</defs>
</svg>
