<svg width="2007" height="410" viewBox="0 0 2007 410" fill="none" xmlns="http://www.w3.org/2000/svg">
<path opacity="0.24" d="M15 240.261C20.8288 226.553 66.3832 200.577 201.97 206.334C371.454 213.531 687.554 242.317 1014.42 302.973C1275.9 351.498 1373.56 369.798 1389.7 372.882C1482.07 393.786 1631.01 417.501 1487.89 345.124C1372.58 286.81 1324.62 260.175 1309.4 250.592C1305.4 248.075 1301.5 245.185 1297.57 242.56C1267.75 222.634 1242.14 192.464 1343.97 206.334C1479.82 224.84 1569.95 225.868 1665.45 197.081C1760.95 168.295 1925.05 87.0775 1995 11" stroke="url(#paint0_linear_1_3173)" stroke-width="31"/>
<defs>
<linearGradient id="paint0_linear_1_3173" x1="15" y1="11" x2="1841.72" y2="765.239" gradientUnits="userSpaceOnUse">
<stop stop-color="#34C9FF"/>
<stop offset="0.330562" stop-color="#8BA3FF"/>
<stop offset="0.661123" stop-color="#FD76E8"/>
<stop offset="1" stop-color="#FF9951"/>
</linearGradient>
</defs>
</svg>
