<svg width="218" height="44" viewBox="0 0 218 44" fill="none" xmlns="http://www.w3.org/2000/svg">
<path d="M197.72 35.9626L205.504 25.4417L198.366 15.7422H202.864L207.831 22.4497L212.798 15.7422H217.296L210.099 25.4417L217.902 35.9626H213.404L207.811 28.3946L202.238 35.9626H197.72Z" fill="white"/>
<path d="M187.386 36.3532C185.495 36.3532 183.846 35.9491 182.438 35.1408C181.03 34.3195 179.935 33.1331 179.153 31.5817C178.37 30.0303 177.979 28.1529 177.979 25.9497C177.979 23.8247 178.351 21.9669 179.094 20.3764C179.837 18.7858 180.906 17.5538 182.301 16.6804C183.709 15.7938 185.41 15.3506 187.405 15.3506C189.309 15.3506 190.958 15.7678 192.353 16.6021C193.748 17.4235 194.83 18.6294 195.599 20.2199C196.368 21.7974 196.753 23.7073 196.753 25.9497C196.753 27.9965 196.394 29.8021 195.677 31.3666C194.96 32.931 193.904 34.1565 192.509 35.043C191.127 35.9165 189.419 36.3532 187.386 36.3532ZM187.405 33.1266C188.565 33.1266 189.53 32.8267 190.299 32.227C191.069 31.6143 191.649 30.7603 192.04 29.6652C192.431 28.5571 192.626 27.2795 192.626 25.8324C192.626 24.4895 192.45 23.2706 192.098 22.1755C191.76 21.0673 191.205 20.1873 190.436 19.5355C189.68 18.8836 188.67 18.5577 187.405 18.5577C186.245 18.5577 185.267 18.8575 184.472 19.4572C183.69 20.0439 183.103 20.8848 182.712 21.9799C182.321 23.062 182.125 24.3461 182.125 25.8324C182.125 27.1491 182.301 28.3615 182.653 29.4697C183.005 30.5778 183.566 31.4643 184.335 32.1292C185.117 32.7941 186.141 33.1266 187.405 33.1266Z" fill="white"/>
<path d="M156.759 35.9629V15.7425H160.846V18.6563C161.172 18.1087 161.609 17.5938 162.157 17.1114C162.717 16.629 163.402 16.2379 164.21 15.9381C165.031 15.6382 165.976 15.4883 167.045 15.4883C168.31 15.4883 169.477 15.7425 170.546 16.2509C171.628 16.7464 172.495 17.5286 173.147 18.5976C173.799 19.6536 174.125 21.0225 174.125 22.7043V35.9629H169.94V23.1541C169.94 21.7069 169.549 20.6314 168.766 19.9274C167.997 19.2234 167 18.8714 165.774 18.8714C164.953 18.8714 164.171 19.0083 163.428 19.2821C162.685 19.5558 162.085 19.973 161.629 20.5336C161.172 21.0812 160.944 21.7721 160.944 22.6065V35.9629H156.759Z" fill="white"/>
<path d="M144.665 36.3532C143.257 36.3532 141.934 36.1316 140.696 35.6883C139.47 35.2451 138.44 34.5476 137.606 33.5959C136.785 32.6442 136.27 31.4252 136.061 29.939H139.796C139.966 30.7082 140.285 31.347 140.754 31.8555C141.237 32.3509 141.81 32.7224 142.475 32.9701C143.153 33.2048 143.877 33.3221 144.646 33.3221C145.924 33.3221 146.96 33.094 147.755 32.6377C148.55 32.1683 148.948 31.4513 148.948 30.4866C148.948 29.7956 148.733 29.2415 148.303 28.8243C147.873 28.4072 147.201 28.1008 146.289 27.9052L142.26 26.947C140.591 26.5559 139.255 25.9366 138.251 25.0892C137.247 24.2288 136.739 23.0294 136.726 21.491C136.726 20.3047 137.019 19.2487 137.606 18.323C138.206 17.3974 139.092 16.6738 140.265 16.1524C141.452 15.6178 142.912 15.3506 144.646 15.3506C146.927 15.3506 148.759 15.859 150.141 16.8759C151.536 17.8928 152.253 19.366 152.292 21.2955H148.674C148.544 20.3698 148.12 19.6463 147.403 19.1248C146.699 18.5903 145.767 18.323 144.607 18.323C143.407 18.323 142.423 18.5642 141.654 19.0466C140.885 19.5159 140.5 20.2395 140.5 21.2172C140.5 21.8821 140.78 22.4101 141.341 22.8012C141.915 23.1793 142.756 23.4922 143.864 23.7399L147.697 24.6981C148.687 24.9589 149.502 25.3044 150.141 25.7346C150.78 26.1518 151.282 26.6146 151.647 27.123C152.012 27.6315 152.266 28.1595 152.409 28.707C152.566 29.2546 152.644 29.7695 152.644 30.2519C152.644 31.5295 152.318 32.6246 151.666 33.5372C151.028 34.4368 150.115 35.1343 148.929 35.6297C147.742 36.112 146.321 36.3532 144.665 36.3532Z" fill="white"/>
<path d="M121.717 36.3532C120.413 36.3532 119.253 36.1186 118.236 35.6492C117.232 35.1799 116.443 34.502 115.87 33.6155C115.296 32.7289 115.009 31.6599 115.009 30.4083C115.009 28.166 115.798 26.4907 117.376 25.3826C118.966 24.2744 121.508 23.6878 125.002 23.6226L128.327 23.5248V22.0581C128.327 20.8978 127.981 19.9852 127.29 19.3204C126.599 18.6555 125.53 18.3295 124.083 18.3426C123.014 18.3426 122.056 18.5903 121.208 19.0857C120.361 19.5811 119.807 20.3959 119.546 21.5301H115.928C116.007 20.1873 116.391 19.0596 117.082 18.147C117.786 17.2214 118.751 16.5239 119.976 16.0546C121.202 15.5853 122.636 15.3506 124.279 15.3506C126.13 15.3506 127.649 15.6048 128.835 16.1133C130.021 16.6087 130.901 17.3387 131.475 18.3035C132.062 19.2682 132.355 20.4415 132.355 21.8235V35.9621H128.796L128.483 32.2466C127.727 33.798 126.769 34.8735 125.608 35.4732C124.448 36.0599 123.151 36.3532 121.717 36.3532ZM123.027 33.4395C123.666 33.4395 124.298 33.3286 124.924 33.107C125.55 32.8723 126.117 32.5595 126.625 32.1683C127.134 31.7642 127.538 31.3144 127.838 30.819C128.151 30.3236 128.314 29.8152 128.327 29.2937V25.9497L125.589 26.0084C124.194 26.0214 123.008 26.1648 122.03 26.4386C121.065 26.7124 120.322 27.1361 119.8 27.7097C119.292 28.2833 119.038 29.046 119.038 29.9977C119.038 31.0798 119.409 31.9272 120.152 32.5399C120.909 33.1396 121.867 33.4395 123.027 33.4395Z" fill="white"/>
<path d="M100.413 36.3532C99.1096 36.3532 97.9493 36.1186 96.9324 35.6492C95.9286 35.1799 95.1399 34.502 94.5662 33.6155C93.9926 32.7289 93.7058 31.6599 93.7058 30.4083C93.7058 28.166 94.4945 26.4907 96.072 25.3826C97.6625 24.2744 100.205 23.6878 103.699 23.6226L107.023 23.5248V22.0581C107.023 20.8978 106.678 19.9852 105.987 19.3204C105.296 18.6555 104.227 18.3295 102.78 18.3426C101.711 18.3426 100.752 18.5903 99.9049 19.0857C99.0575 19.5811 98.5034 20.3959 98.2427 21.5301H94.6249C94.7031 20.1873 95.0877 19.0596 95.7787 18.147C96.4827 17.2214 97.4474 16.5239 98.6729 16.0546C99.8984 15.5853 101.332 15.3506 102.975 15.3506C104.826 15.3506 106.345 15.6048 107.532 16.1133C108.718 16.6087 109.598 17.3387 110.172 18.3035C110.758 19.2682 111.052 20.4415 111.052 21.8235V35.9621H107.492L107.18 32.2466C106.423 33.798 105.465 34.8735 104.305 35.4732C103.145 36.0599 101.847 36.3532 100.413 36.3532ZM101.724 33.4395C102.362 33.4395 102.995 33.3286 103.62 33.107C104.246 32.8723 104.813 32.5595 105.322 32.1683C105.83 31.7642 106.234 31.3144 106.534 30.819C106.847 30.3236 107.01 29.8152 107.023 29.2937V25.9497L104.285 26.0084C102.89 26.0214 101.704 26.1648 100.726 26.4386C99.7615 26.7124 99.0184 27.1361 98.4969 27.7097C97.9884 28.2833 97.7342 29.046 97.7342 29.9977C97.7342 31.0798 98.1058 31.9272 98.8489 32.5399C99.605 33.1396 100.563 33.4395 101.724 33.4395Z" fill="white"/>
<path d="M79.3568 36.3534C77.9748 36.3534 76.6451 36.1839 75.3674 35.845C74.1028 35.506 72.9491 35.0041 71.9061 34.3392C70.8762 33.6613 70.0223 32.8204 69.3443 31.8165C68.6794 30.8127 68.2623 29.6394 68.0928 28.2965H72.4537C72.6753 29.3134 73.112 30.1674 73.7639 30.8583C74.4288 31.5493 75.2566 32.0708 76.2474 32.4228C77.2513 32.7748 78.3594 32.9508 79.5719 32.9508C80.6931 32.9508 81.7295 32.7748 82.6812 32.4228C83.6329 32.0708 84.4021 31.5623 84.9888 30.8974C85.5754 30.2325 85.8688 29.4177 85.8688 28.453C85.8688 27.3709 85.5037 26.517 84.7736 25.8912C84.0566 25.2524 82.9745 24.744 81.5274 24.3659L75.8563 22.9579C74.4874 22.632 73.2815 22.1691 72.2385 21.5694C71.1956 20.9567 70.3873 20.1549 69.8137 19.1641C69.24 18.1603 68.9532 16.9217 68.9532 15.4486C68.9532 13.8059 69.403 12.3783 70.3025 11.1659C71.2151 9.94041 72.4471 8.99523 73.9985 8.33034C75.563 7.66545 77.3295 7.33301 79.2981 7.33301C81.5535 7.33301 83.4504 7.7176 84.9888 8.48678C86.5402 9.25597 87.7135 10.2729 88.5088 11.5374C89.317 12.789 89.7277 14.1514 89.7407 15.6246H85.4776C85.3603 14.4251 85.0018 13.4734 84.4021 12.7694C83.8154 12.0524 83.0658 11.5374 82.1532 11.2246C81.2536 10.9117 80.2563 10.7552 79.1612 10.7552C77.2317 10.7552 75.7781 11.1854 74.8003 12.0459C73.8356 12.8933 73.3532 13.9037 73.3532 15.077C73.3532 16.1591 73.7052 17.013 74.4092 17.6388C75.1262 18.2646 76.1822 18.7469 77.5772 19.0859L83.0528 20.4352C84.7736 20.8133 86.149 21.3804 87.179 22.1366C88.2219 22.8797 88.9716 23.7597 89.4279 24.7765C89.8842 25.7804 90.1123 26.882 90.1123 28.0814C90.1123 29.685 89.6625 31.1125 88.763 32.3641C87.8634 33.6026 86.6053 34.5804 84.9888 35.2974C83.3852 36.0014 81.5079 36.3534 79.3568 36.3534Z" fill="white"/>
<path fill-rule="evenodd" clip-rule="evenodd" d="M21.9806 21.8195L29.1562 9.39194L25.6187 3.26543C23.1057 -1.08718 16.8561 -1.08718 14.341 3.26543L0 28.1061L9.17741 43.9993L21.9806 21.8195Z" fill="#34C9FF"/>
<path fill-rule="evenodd" clip-rule="evenodd" d="M39.297 44H19.0164L29.1567 26.4355L39.297 44Z" fill="#FF9951"/>
<path fill-rule="evenodd" clip-rule="evenodd" d="M36.3323 21.82L29.1566 9.3925L32.6942 3.266C35.2051 -1.08867 41.4568 -1.08867 43.9719 3.266L58.3149 28.1067L49.1375 43.9999L36.3323 21.82Z" fill="#FD76E8"/>
</svg>
