<svg width="179" height="36" viewBox="0 0 179 36" fill="none" xmlns="http://www.w3.org/2000/svg">
<path d="M161.771 29.424L168.139 20.816L162.299 12.88H165.979L170.043 18.368L174.107 12.88H177.787L171.899 20.816L178.283 29.424H174.603L170.027 23.232L165.467 29.424H161.771Z" fill="black"/>
<path d="M153.316 29.744C151.769 29.744 150.42 29.4133 149.268 28.752C148.116 28.08 147.22 27.1093 146.58 25.84C145.94 24.5707 145.62 23.0347 145.62 21.232C145.62 19.4933 145.924 17.9733 146.532 16.672C147.14 15.3707 148.014 14.3627 149.156 13.648C150.308 12.9227 151.7 12.56 153.332 12.56C154.889 12.56 156.238 12.9013 157.38 13.584C158.521 14.256 159.406 15.2427 160.036 16.544C160.665 17.8347 160.98 19.3973 160.98 21.232C160.98 22.9067 160.686 24.384 160.1 25.664C159.513 26.944 158.649 27.9467 157.508 28.672C156.377 29.3867 154.98 29.744 153.316 29.744ZM153.332 27.104C154.281 27.104 155.07 26.8587 155.7 26.368C156.329 25.8667 156.804 25.168 157.124 24.272C157.444 23.3653 157.604 22.32 157.604 21.136C157.604 20.0373 157.46 19.04 157.172 18.144C156.894 17.2373 156.441 16.5173 155.812 15.984C155.193 15.4507 154.366 15.184 153.332 15.184C152.382 15.184 151.582 15.4293 150.932 15.92C150.292 16.4 149.812 17.088 149.492 17.984C149.172 18.8693 149.012 19.92 149.012 21.136C149.012 22.2133 149.156 23.2053 149.444 24.112C149.732 25.0187 150.19 25.744 150.82 26.288C151.46 26.832 152.297 27.104 153.332 27.104Z" fill="black"/>
<path d="M128.258 29.424V12.88H131.602V15.264C131.868 14.816 132.226 14.3947 132.674 14C133.132 13.6053 133.692 13.2853 134.354 13.04C135.026 12.7947 135.799 12.672 136.674 12.672C137.708 12.672 138.663 12.88 139.538 13.296C140.423 13.7013 141.132 14.3413 141.666 15.216C142.199 16.08 142.466 17.2 142.466 18.576V29.424H139.042V18.944C139.042 17.76 138.722 16.88 138.082 16.304C137.452 15.728 136.636 15.44 135.634 15.44C134.962 15.44 134.322 15.552 133.714 15.776C133.106 16 132.615 16.3413 132.242 16.8C131.868 17.248 131.682 17.8133 131.682 18.496V29.424H128.258Z" fill="black"/>
<path d="M118.363 29.744C117.211 29.744 116.128 29.5627 115.115 29.2C114.112 28.8373 113.269 28.2667 112.587 27.488C111.915 26.7093 111.493 25.712 111.323 24.496H114.379C114.517 25.1253 114.779 25.648 115.163 26.064C115.557 26.4693 116.027 26.7733 116.571 26.976C117.125 27.168 117.717 27.264 118.347 27.264C119.392 27.264 120.24 27.0773 120.891 26.704C121.541 26.32 121.867 25.7333 121.867 24.944C121.867 24.3787 121.691 23.9253 121.339 23.584C120.987 23.2427 120.437 22.992 119.691 22.832L116.395 22.048C115.029 21.728 113.936 21.2213 113.115 20.528C112.293 19.824 111.877 18.8427 111.867 17.584C111.867 16.6133 112.107 15.7493 112.587 14.992C113.077 14.2347 113.803 13.6427 114.763 13.216C115.733 12.7787 116.928 12.56 118.347 12.56C120.213 12.56 121.712 12.976 122.843 13.808C123.984 14.64 124.571 15.8453 124.603 17.424H121.643C121.536 16.6667 121.189 16.0747 120.603 15.648C120.027 15.2107 119.264 14.992 118.315 14.992C117.333 14.992 116.528 15.1893 115.899 15.584C115.269 15.968 114.955 16.56 114.955 17.36C114.955 17.904 115.184 18.336 115.643 18.656C116.112 18.9653 116.8 19.2213 117.707 19.424L120.843 20.208C121.653 20.4213 122.32 20.704 122.843 21.056C123.365 21.3973 123.776 21.776 124.075 22.192C124.373 22.608 124.581 23.04 124.699 23.488C124.827 23.936 124.891 24.3573 124.891 24.752C124.891 25.7973 124.624 26.6933 124.091 27.44C123.568 28.176 122.821 28.7467 121.851 29.152C120.88 29.5467 119.717 29.744 118.363 29.744Z" fill="black"/>
<path d="M99.5866 29.744C98.52 29.744 97.5706 29.552 96.7386 29.168C95.9173 28.784 95.272 28.2293 94.8026 27.504C94.3333 26.7787 94.0986 25.904 94.0986 24.88C94.0986 23.0453 94.744 21.6747 96.0346 20.768C97.336 19.8613 99.416 19.3813 102.275 19.328L104.995 19.248V18.048C104.995 17.0987 104.712 16.352 104.147 15.808C103.581 15.264 102.707 14.9973 101.523 15.008C100.648 15.008 99.864 15.2107 99.1706 15.616C98.4773 16.0213 98.024 16.688 97.8106 17.616H94.8506C94.9146 16.5173 95.2293 15.5947 95.7946 14.848C96.3706 14.0907 97.16 13.52 98.1626 13.136C99.1653 12.752 100.339 12.56 101.683 12.56C103.197 12.56 104.44 12.768 105.411 13.184C106.381 13.5893 107.101 14.1867 107.571 14.976C108.051 15.7653 108.291 16.7253 108.291 17.856V29.424H105.379L105.123 26.384C104.504 27.6533 103.72 28.5333 102.771 29.024C101.821 29.504 100.76 29.744 99.5866 29.744ZM100.659 27.36C101.181 27.36 101.699 27.2693 102.211 27.088C102.723 26.896 103.187 26.64 103.603 26.32C104.019 25.9893 104.349 25.6213 104.595 25.216C104.851 24.8107 104.984 24.3947 104.995 23.968V21.232L102.755 21.28C101.613 21.2907 100.643 21.408 99.8426 21.632C99.0533 21.856 98.4453 22.2027 98.0186 22.672C97.6026 23.1413 97.3946 23.7653 97.3946 24.544C97.3946 25.4293 97.6986 26.1227 98.3066 26.624C98.9253 27.1147 99.7093 27.36 100.659 27.36Z" fill="black"/>
<path d="M82.1565 29.744C81.0898 29.744 80.1405 29.552 79.3085 29.168C78.4871 28.784 77.8418 28.2293 77.3725 27.504C76.9031 26.7787 76.6685 25.904 76.6685 24.88C76.6685 23.0453 77.3138 21.6747 78.6045 20.768C79.9058 19.8613 81.9858 19.3813 84.8445 19.328L87.5645 19.248V18.048C87.5645 17.0987 87.2818 16.352 86.7165 15.808C86.1511 15.264 85.2765 14.9973 84.0925 15.008C83.2178 15.008 82.4338 15.2107 81.7405 15.616C81.0471 16.0213 80.5938 16.688 80.3805 17.616H77.4205C77.4845 16.5173 77.7991 15.5947 78.3645 14.848C78.9405 14.0907 79.7298 13.52 80.7325 13.136C81.7351 12.752 82.9085 12.56 84.2525 12.56C85.7671 12.56 87.0098 12.768 87.9805 13.184C88.9511 13.5893 89.6711 14.1867 90.1405 14.976C90.6205 15.7653 90.8605 16.7253 90.8605 17.856V29.424H87.9485L87.6925 26.384C87.0738 27.6533 86.2898 28.5333 85.3405 29.024C84.3911 29.504 83.3298 29.744 82.1565 29.744ZM83.2285 27.36C83.7511 27.36 84.2685 27.2693 84.7805 27.088C85.2925 26.896 85.7565 26.64 86.1725 26.32C86.5885 25.9893 86.9191 25.6213 87.1645 25.216C87.4205 24.8107 87.5538 24.3947 87.5645 23.968V21.232L85.3245 21.28C84.1831 21.2907 83.2125 21.408 82.4125 21.632C81.6231 21.856 81.0151 22.2027 80.5885 22.672C80.1725 23.1413 79.9645 23.7653 79.9645 24.544C79.9645 25.4293 80.2685 26.1227 80.8765 26.624C81.4951 27.1147 82.2791 27.36 83.2285 27.36Z" fill="black"/>
<path d="M64.9284 29.744C63.7977 29.744 62.7097 29.6053 61.6644 29.328C60.6297 29.0507 59.6857 28.64 58.8324 28.096C57.9897 27.5413 57.2911 26.8533 56.7364 26.032C56.1924 25.2107 55.8511 24.2507 55.7124 23.152H59.2804C59.4617 23.984 59.8191 24.6827 60.3524 25.248C60.8964 25.8133 61.5737 26.24 62.3844 26.528C63.2057 26.816 64.1124 26.96 65.1044 26.96C66.0217 26.96 66.8697 26.816 67.6484 26.528C68.4271 26.24 69.0564 25.824 69.5364 25.28C70.0164 24.736 70.2564 24.0693 70.2564 23.28C70.2564 22.3947 69.9577 21.696 69.3604 21.184C68.7737 20.6613 67.8884 20.2453 66.7044 19.936L62.0644 18.784C60.9444 18.5173 59.9577 18.1387 59.1044 17.648C58.2511 17.1467 57.5897 16.4907 57.1204 15.68C56.6511 14.8587 56.4164 13.8453 56.4164 12.64C56.4164 11.296 56.7844 10.128 57.5204 9.136C58.2671 8.13333 59.2751 7.36 60.5444 6.816C61.8244 6.272 63.2697 6 64.8804 6C66.7257 6 68.2777 6.31467 69.5364 6.944C70.8057 7.57333 71.7657 8.40533 72.4164 9.44C73.0777 10.464 73.4137 11.5787 73.4244 12.784H69.9364C69.8404 11.8027 69.5471 11.024 69.0564 10.448C68.5764 9.86133 67.9631 9.44 67.2164 9.184C66.4804 8.928 65.6644 8.8 64.7684 8.8C63.1897 8.8 62.0004 9.152 61.2004 9.856C60.4111 10.5493 60.0164 11.376 60.0164 12.336C60.0164 13.2213 60.3044 13.92 60.8804 14.432C61.4671 14.944 62.3311 15.3387 63.4724 15.616L67.9524 16.72C69.3604 17.0293 70.4857 17.4933 71.3284 18.112C72.1817 18.72 72.7951 19.44 73.1684 20.272C73.5417 21.0933 73.7284 21.9947 73.7284 22.976C73.7284 24.288 73.3604 25.456 72.6244 26.48C71.8884 27.4933 70.8591 28.2933 69.5364 28.88C68.2244 29.456 66.6884 29.744 64.9284 29.744Z" fill="black"/>
<path fill-rule="evenodd" clip-rule="evenodd" d="M17.9842 17.8529L23.8551 7.68491L20.9608 2.67231C18.9047 -0.888919 13.7913 -0.888919 11.7335 2.67231L0 22.9965L7.5088 36.0001L17.9842 17.8529Z" fill="#34C9FF"/>
<path fill-rule="evenodd" clip-rule="evenodd" d="M32.152 35.9999H15.5588L23.8554 21.629L32.152 35.9999Z" fill="#FF9951"/>
<path fill-rule="evenodd" clip-rule="evenodd" d="M29.7264 17.8528L23.8554 7.68478L26.7497 2.67218C28.8041 -0.890728 33.9192 -0.890728 35.977 2.67218L47.7122 22.9964L40.2034 35.9999L29.7264 17.8528Z" fill="#FD76E8"/>
</svg>
